<svg width="29" height="29" viewBox="0 0 29 29" xmlns="http://www.w3.org/2000/svg">
  <g transform="translate(1 1)" stroke="#38467A" stroke-width="1.9" fill="none" fill-rule="evenodd" stroke-linecap="round" stroke-linejoin="round">
    <path d="M11.4 2a2.3 2.3 0 0 0 3.4 0L16 .8a2.3 2.3 0 0 1 4 1.6V4a2.3 2.3 0 0 0 2.3 2.4h1.6a2.3 2.3 0 0 1 1.7 4l-1.2 1a2.3 2.3 0 0 0 0 3.4l1.2 1.1a2.3 2.3 0 0 1-1.7 4h-1.6a2.3 2.3 0 0 0-2.4 2.3v1.6a2.3 2.3 0 0 1-3.9 1.7l-1-1.2a2.3 2.3 0 0 0-3.5 0l-1 1.2a2.3 2.3 0 0 1-4-1.7v-1.6A2.3 2.3 0 0 0 4 19.8H2.4A2.3 2.3 0 0 1 .8 16L2 15a2.3 2.3 0 0 0 0-3.5l-1.2-1a2.3 2.3 0 0 1 1.6-4H4A2.3 2.3 0 0 0 6.4 4V2.4a2.3 2.3 0 0 1 4-1.6l1 1.2z"/>
    <circle cx="13.3" cy="13.3" r="5.3"/>
  </g>
</svg>
