<?xml version="1.0" encoding="UTF-8"?>
<svg width="60px" height="60px" viewBox="0 0 60 60" version="1.1" xmlns="http://www.w3.org/2000/svg" xmlns:xlink="http://www.w3.org/1999/xlink">
    <!-- Generator: sketchtool 52.2 (67145) - http://www.bohemiancoding.com/sketch -->
    <title>C7E0935A-6EAD-4FB9-94C2-D4A18D2DEE73</title>
    <desc>Created with sketchtool.</desc>
    <g id="Design" stroke="none" stroke-width="1" fill="none" fill-rule="evenodd">
        <g id="2c-Features---Ordonnancer" transform="translate(-726.000000, -1275.000000)">
            <g id="Section-1" transform="translate(193.000000, 878.000000)">
                <g id="2" transform="translate(533.000000, 397.000000)">
                    <g id="heuristique">
                        <circle id="Oval-4" fill="#1C95FF" fill-rule="nonzero" opacity="0.2" cx="30" cy="30" r="30"></circle>
                        <g id="Group-8" transform="translate(16.000000, 9.000000)">
                            <g id="1-copy-12" transform="translate(0.000000, 13.000000)">
                                <polygon id="Shape" fill="#1CCAFF" points="4.85733696 4.34027778 0 2.17013889 0 16.4826389 4.85733696 18.6527778 4.85733696 13.4444444"></polygon>
                                <polygon id="Shape" fill="#1C95FF" points="4.85733696 4.34027778 9.71467391 2.17013889 9.71467391 16.4826389 4.85733696 18.6527778 4.85733696 13.4444444"></polygon>
                                <polygon id="Shape" fill="#1CEEFF" points="9.71467391 2.17013889 4.85733696 5.68434189e-14 0 2.17013889 4.85733696 4.43611836"></polygon>
                            </g>
                            <g id="1-copy-12" transform="translate(8.125000, 10.562500)">
                                <polygon id="Shape" fill="#1CCAFF" points="4.85733696 4.34027778 0 2.17013889 0 22.9826389 4.85733696 25.1527778 4.85733696 19.9444444"></polygon>
                                <polygon id="Shape" fill="#1C95FF" points="4.85733696 4.34027778 9.71467391 2.17013889 9.71467391 22.9826389 4.85733696 25.1527778 4.85733696 19.9444444"></polygon>
                                <polygon id="Shape" fill="#1CEEFF" points="9.71467391 2.17013889 4.85733696 5.68434189e-14 0 2.17013889 4.85733696 4.43611836"></polygon>
                            </g>
                            <g id="noun_Star_1965890" transform="translate(9.750000, 0.000000)">
                                <g id="Group">
                                    <path d="M5.37886879,4.64305189 L4.31837195,1.38545231 L3.25797108,3.3539144 C3.22486354,3.41536684 3.16085564,3.4329436 3.08686748,3.40115542 L0.715695974,2.37874102 L2.43153015,5.45560997 C2.48507799,5.55164908 2.50954878,5.65802237 2.49688155,5.73995284 L2.09191398,8.36592919 L4.21271572,8.29911146 C4.2789308,8.29699789 4.35800504,8.34506564 4.42431608,8.42773937 L6.54511782,11.0729488 L6.14005429,7.95468636 C6.12738706,7.85735554 6.15185784,7.78073293 6.20540569,7.7497953 L7.9211439,6.75879854 L5.55006835,4.89848933 C5.47588827,4.8402088 5.41188037,4.7446969 5.37886879,4.64305189 Z" id="Path"></path>
                                    <path d="M8.62561474,6.90857137 C8.59893678,6.7922201 8.52773158,6.67599419 8.4421318,6.60890453 L5.73355129,4.48379528 L4.52219924,0.762433093 C4.48390965,0.644741953 4.40493137,0.537095478 4.31837195,0.484477619 C4.23181254,0.431859761 4.15283426,0.443604103 4.11454467,0.514627481 L2.90328858,2.76321462 L0.194612106,1.595391 C0.109012325,1.55852834 0.0379030904,1.58812726 0.0111291679,1.67198613 C-0.0156447546,1.75572828 0.00671482941,1.87925784 0.068611532,1.99029213 L2.02867378,5.50517176 L1.56603191,8.50479539 C1.55134944,8.59950562 1.58647222,8.7256586 1.65642989,8.83003904 C1.69606297,8.88914322 1.74289335,8.93534993 1.79001161,8.96399225 C1.82618999,8.98598441 1.86246434,8.99753132 1.89576381,8.99653285 L4.31837195,8.92026165 L6.7409801,11.9419663 C6.81765524,12.0375924 6.91035635,12.0856575 6.98031402,12.0664457 C7.05027169,12.0471172 7.08539447,11.9636652 7.070712,11.8509878 L6.60807013,8.28890146 L8.56803641,7.15681741 C8.63002908,7.12109317 8.65238866,7.02486427 8.62561474,6.90857137 Z M6.20530973,7.74962025 C6.15176188,7.78055789 6.12729109,7.8571805 6.13995832,7.95451132 L6.54502186,11.0727738 L4.42422011,8.42756433 C4.35800504,8.34494894 4.2789308,8.29688118 4.21261976,8.29893642 L2.09181801,8.36575415 L2.49678559,5.7397778 C2.50945282,5.65784733 2.48498203,5.55147404 2.43143418,5.45543493 L0.715695974,2.37862432 L3.08686748,3.40103872 C3.1609516,3.43300193 3.22495951,3.41530846 3.25797108,3.3537977 L4.31837195,1.38545231 L5.37877283,4.64311026 C5.41188037,4.74481361 5.47588827,4.8402088 5.54987643,4.89837266 L7.92095197,6.75868187 L6.20530973,7.74962025 Z" id="Shape" fill="#1CCAFF" fill-rule="nonzero"></path>
                                    <polyline id="Path-17" fill="#1CCAFF" fill-rule="nonzero" points="4.45255888 0.716911765 3.05034076 2.86764706 0.692170516 2.15073529 0.744791667 2.86764706 2.234375 5.73529412 1.86197917 8.60294118 2.234375 8.60294118 4.45255888 8.60294118 6.703125 11.4705882 6.703125 7.88602941 8.19270833 7.16911765 8.19270833 6.45220588 5.95833333 5.01838235 5.34064198 4.30147059 4.46875 0.716911765"></polyline>
                                </g>
                            </g>
                            <g id="1" transform="translate(16.250000, 22.750000)">
                                <polygon id="Shape" fill="#1CCAFF" points="4.85733696 4.34027778 0 2.17013889 0 14.0451389 4.85733696 16.2152778 4.85733696 11.0069444"></polygon>
                                <polygon id="Shape" fill="#1C95FF" points="4.85733696 4.34027778 9.71467391 2.17013889 9.71467391 14.0451389 4.85733696 16.2152778 4.85733696 11.0069444"></polygon>
                                <polygon id="Shape" fill="#1CEEFF" points="9.71467391 2.17013889 4.85733696 5.68434189e-14 0 2.17013889 4.85733696 4.43611836"></polygon>
                            </g>
                        </g>
                    </g>
                </g>
            </g>
        </g>
    </g>
</svg>