<?xml version="1.0" encoding="UTF-8"?>
<svg width="60px" height="60px" viewBox="0 0 60 60" version="1.1" xmlns="http://www.w3.org/2000/svg" xmlns:xlink="http://www.w3.org/1999/xlink">
    <!-- Generator: Sketch 52.2 (67145) - http://www.bohemiancoding.com/sketch -->
    <title>heuristique</title>
    <desc>Created with Sketch.</desc>
    <defs>
        <path d="M0,30 C0,46.568 13.431,60 30,60 C46.568,60 60,46.568 60,30 C60,13.431 46.568,0 30,0 C13.431,0 0,13.431 0,30 Z" id="path-1"></path>
        <path d="M11.264,0.307 L8.17,6.014 L1.247,3.05 C1.029,2.956 0.847,3.031 0.778,3.244 C0.71,3.458 0.768,3.771 0.926,4.052 L5.935,12.975 L4.752,20.589 C4.715,20.829 4.805,21.15 4.983,21.415 C5.084,21.565 5.204,21.682 5.324,21.755 C5.417,21.81 5.51,21.84 5.594,21.837 L11.786,21.644 L17.977,29.315 C18.173,29.557 18.41,29.679 18.589,29.63 C18.768,29.581 18.858,29.369 18.819,29.083 L17.638,20.041 L22.647,17.167 C22.805,17.076 22.862,16.832 22.793,16.537 C22.725,16.242 22.543,15.946 22.324,15.777 L15.402,10.382 L12.307,0.936 C12.209,0.637 12.007,0.363 11.786,0.229 C11.694,0.174 11.605,0.147 11.526,0.147 C11.415,0.147 11.322,0.201 11.264,0.307 Z M9.076,7.514 L11.786,2.517 L14.496,10.786 C14.58,11.045 14.744,11.287 14.933,11.434 L20.992,16.156 L16.609,18.672 C16.471,18.751 16.408,18.946 16.441,19.192 L17.476,27.108 L12.056,20.393 C11.887,20.184 11.685,20.062 11.515,20.066 L6.096,20.236 L7.131,13.571 C7.163,13.362 7.101,13.092 6.964,12.849 L2.579,5.038 L8.639,7.634 C8.701,7.661 8.76,7.673 8.815,7.673 C8.927,7.673 9.019,7.619 9.076,7.514 Z" id="path-3"></path>
        <polygon id="path-5" points="10.129 0.821 6.544 6.279 0.518 4.46 0.653 6.279 4.46 13.558 3.509 20.838 4.46 20.838 10.129 20.838 15.88 28.118 15.374 19.594 19.686 17.199 19.686 15.379 13.977 11.739 12.398 9.919 10.17 0.821"></polygon>
    </defs>
    <g id="Icons" stroke="none" stroke-width="1" fill="none" fill-rule="evenodd">
        <g id="Artboard" transform="translate(-818.000000, -2211.000000)">
            <g id="2" transform="translate(773.000000, 2166.000000)">
                <g id="picto">
                    <g id="heuristique" transform="translate(45.000000, 45.000000)">
                        <g id="Group-3">
                            <mask id="mask-2" fill="white">
                                <use xlink:href="#path-1"></use>
                            </mask>
                            <g id="Clip-2"></g>
                            <polygon id="Fill-1" fill="#1C95FF" opacity="0.2" mask="url(#mask-2)" points="-5 65 65 65 65 -5 -5 -5"></polygon>
                        </g>
                        <g id="Group-10" transform="translate(27.000000, 16.000000)">
                            <path d="M9.249,20.5488 L10.295,28.7578 C10.295,28.7578 10.557,29.5418 10.243,29.8558 C9.93,30.1698 7.589,31.6298 7.589,31.6298 L5.063,20.8808 L9.249,20.5488 Z" id="Fill-4" fill="#1C95FF"></path>
                            <path d="M0.2646,2.3066 C0.2646,2.3066 0.3286,2.0106 0.9366,1.6916 C1.5436,1.3706 3.2816,0.4106 3.2816,0.4106 C3.2816,0.4106 3.7236,0.1886 4.2836,1.1676 C4.8426,2.1476 7.5016,10.2626 7.5016,10.2626 L14.0086,15.8606 C14.0086,15.8606 14.4976,16.1406 14.4286,16.7006 C14.3586,17.2596 14.0786,17.6096 14.0786,17.6096 L11.6466,19.1666 L2.0446,12.9216 L0.2646,2.3066 Z" id="Fill-6" fill="#1CEEFF"></path>
                            <path d="M7.4961,10.2441 C7.4291,10.0401 4.8361,2.1351 4.2831,1.1681 C3.7241,0.1881 3.2811,0.4101 3.2811,0.4101 C3.2811,0.4101 1.5441,1.3711 0.9361,1.6911 C0.3291,2.0111 0.2651,2.3071 0.2651,2.3071 L2.0451,12.9221 L2.1901,13.0161 L4.4021,12.3821 L7.4961,10.2441 Z" id="Fill-8" fill="#1CEEFF"></path>
                        </g>
                        <g id="Group-13" transform="translate(16.000000, 18.000000)">
                            <mask id="mask-4" fill="white">
                                <use xlink:href="#path-3"></use>
                            </mask>
                            <g id="Clip-12"></g>
                            <polygon id="Fill-11" fill="#1CCAFF" mask="url(#mask-4)" points="-4.25 34.64 27.821 34.64 27.821 -4.853 -4.25 -4.853"></polygon>
                        </g>
                        <g id="Group-16" transform="translate(18.000000, 18.000000)">
                            <mask id="mask-6" fill="white">
                                <use xlink:href="#path-5"></use>
                            </mask>
                            <g id="Clip-15"></g>
                            <polygon id="Fill-14" fill="#1CCAFF" mask="url(#mask-6)" points="-4.481 33.117 24.687 33.117 24.687 -4.18 -4.481 -4.18"></polygon>
                        </g>
                        <path d="M16.8906,21.0303 L19.0236,20.2243 C19.0236,20.2243 19.2836,20.1463 19.6216,20.2503 C19.9596,20.3543 25.0976,22.3013 25.0976,22.3013 L24.1696,24.0143 L16.8906,21.0303 Z" id="Fill-17" fill="#1CEEFF"></path>
                    </g>
                </g>
            </g>
        </g>
    </g>
</svg>