<?xml version="1.0" encoding="UTF-8"?>
<svg width="60px" height="60px" viewBox="0 0 60 60" version="1.1" xmlns="http://www.w3.org/2000/svg" xmlns:xlink="http://www.w3.org/1999/xlink">
    <!-- Generator: Sketch 52.2 (67145) - http://www.bohemiancoding.com/sketch -->
    <title>ordonnancement </title>
    <desc>Created with Sketch.</desc>
    <g id="Icons" stroke="none" stroke-width="1" fill="none" fill-rule="evenodd">
        <g id="Artboard" transform="translate(-138.000000, -1991.000000)">
            <g id="1" transform="translate(93.000000, 1946.000000)">
                <g id="picto">
                    <g id="ordonnancement-" transform="translate(45.000000, 45.000000)">
                        <circle id="Oval-4" fill="#1C95FF" fill-rule="nonzero" opacity="0.2" cx="30" cy="30" r="30"></circle>
                        <g id="Group" transform="translate(18.000000, 15.000000)">
                            <g id="3d-box-corner">
                                <g id="Group-9">
                                    <path d="M21.2467722,4.85781459 L11.9677958,0.688999111 C11.4426236,0.45305215 10.8256145,0.687515587 10.5896676,1.21268786 C10.5293119,1.34702797 10.4981061,1.49263211 10.4981061,1.63990762 L10.4981061,16.7630536 C10.4981061,17.5839548 10.9798061,18.328453 11.7286066,18.6648706 L21.0075829,22.8336861 C21.5327552,23.069633 22.1497643,22.8351696 22.3857112,22.3099973 C22.4460669,22.1756572 22.4772727,22.0300531 22.4772727,21.8827776 L22.4772727,10.5773148 L22.4772727,6.75963162 C22.4772727,5.93873035 21.9955727,5.19423218 21.2467722,4.85781459 Z" id="Shape" fill="#1C95FF"></path>
                                    <path d="M16.0194995,7.95781459 L6.74052311,3.78899911 C6.21535084,3.55305215 5.5983418,3.78751559 5.36239483,4.31268786 C5.30203913,4.44702797 5.27083333,4.59263211 5.27083333,4.73990762 L5.27083333,19.8630536 C5.27083333,20.6839548 5.75253338,21.428453 6.50133383,21.7648706 L15.7803102,25.9336861 C16.3054825,26.169633 16.9224915,25.9351696 17.1584385,25.4099973 C17.2187942,25.2756572 17.25,25.1300531 17.25,24.9827776 L17.25,13.6773148 L17.25,9.85963162 C17.25,9.03873035 16.7682999,8.29423218 16.0194995,7.95781459 Z" id="Shape" fill="#1CCAFF"></path>
                                    <path d="M10.7922268,12.0911479 L1.51325038,7.92233244 C0.988078115,7.68638548 0.371069068,7.92084892 0.135122106,8.44602119 C0.0747664021,8.58036131 0.0435606061,8.72596544 0.0435606061,8.87324096 L0.0435606061,23.9963869 C0.0435606061,24.8172882 0.525260658,25.5617863 1.2740611,25.8982039 L10.5530375,30.0670194 C11.0782098,30.3029664 11.6952188,30.0685029 11.9311658,29.5433307 C11.9915215,29.4089905 12.0227273,29.2633864 12.0227273,29.1161109 L12.0227273,17.8106481 L12.0227273,13.992965 C12.0227273,13.1720637 11.5410272,12.4275655 10.7922268,12.0911479 Z" id="Shape" fill="#1CEEFF"></path>
                                </g>
                            </g>
                        </g>
                    </g>
                </g>
            </g>
        </g>
    </g>
</svg>