<?xml version="1.0" encoding="UTF-8"?>
<svg width="60px" height="60px" viewBox="0 0 60 60" version="1.1" xmlns="http://www.w3.org/2000/svg" xmlns:xlink="http://www.w3.org/1999/xlink">
    <!-- Generator: sketchtool 52.2 (67145) - http://www.bohemiancoding.com/sketch -->
    <title>534EB4A8-62EB-4FD3-811B-13A83D36602F</title>
    <desc>Created with sketchtool.</desc>
    <g id="Design" stroke="none" stroke-width="1" fill="none" fill-rule="evenodd">
        <g id="2c-Features---Ordonnancer" transform="translate(-193.000000, -1274.000000)">
            <g id="Section-1" transform="translate(193.000000, 878.000000)">
                <g id="1" transform="translate(0.000000, 396.000000)">
                    <g id="competences">
                        <circle id="Oval-4" fill="#1C95FF" fill-rule="nonzero" opacity="0.2" cx="30" cy="30" r="30"></circle>
                        <g id="Group-2" transform="translate(13.000000, 17.000000)">
                            <g id="Group" transform="translate(0.000000, 6.322581)">
                                <g id="3d-box-corner">
                                    <polygon id="Shape" fill="#1CCAFF" points="7.29411765 7.18869474 0.0264279625 3.85648148 0.0264279625 11.8537933 7.29411765 15.1860066"></polygon>
                                    <polygon id="Shape" fill="#1C95FF" points="7.29411765 7.18869474 14.5618073 3.85648148 14.5618073 11.8537933 7.29411765 15.1860066"></polygon>
                                    <polygon id="Shape" fill="#1CEEFF" points="14.5618073 3.85648148 7.29411765 0.52426822 0.0264279625 3.85648148 7.29411765 7.33585641"></polygon>
                                </g>
                            </g>
                            <path d="M25.5294118,26.9483469 C28.0471805,25.6573909 30.0882353,22.5451932 30.0882353,19.9970587 C30.0882353,17.4489242 28.0471805,16.4297797 25.5294118,17.7207357 C23.0116431,19.0116917 20.9705882,22.1238894 20.9705882,24.6720239 C20.9705882,27.2201584 23.0116431,28.2393029 25.5294118,26.9483469 Z" id="Oval" fill="#1C95FF" fill-rule="nonzero"></path>
                            <polygon id="Path-18" fill="#1CCAFF" fill-rule="nonzero" points="16.5067402 1.80645161 23.7703968 12.6451613 31 6.32258065"></polygon>
                            <polygon id="Path-19" fill="#1CEEFF" fill-rule="nonzero" points="16.5067402 1.80645161 29.1764706 1.14130927e-13 31 6.32258065"></polygon>
                        </g>
                    </g>
                </g>
            </g>
        </g>
    </g>
</svg>