<?xml version="1.0" encoding="UTF-8"?>
<svg width="60px" height="60px" viewBox="0 0 60 60" version="1.1" xmlns="http://www.w3.org/2000/svg" xmlns:xlink="http://www.w3.org/1999/xlink">
    <!-- Generator: Sketch 52.2 (67145) - http://www.bohemiancoding.com/sketch -->
    <title>gestion</title>
    <desc>Created with Sketch.</desc>
    <g id="Icons" stroke="none" stroke-width="1" fill="none" fill-rule="evenodd">
        <g id="Artboard" transform="translate(-818.000000, -1991.000000)">
            <g id="2" transform="translate(773.000000, 1946.000000)">
                <g id="picto">
                    <g id="gestion" transform="translate(45.000000, 45.000000)">
                        <circle id="Oval-4" fill="#1C95FF" fill-rule="nonzero" opacity="0.2" cx="30" cy="30" r="30"></circle>
                        <g id="Group-7" transform="translate(14.000000, 14.000000)">
                            <g id="Group" transform="translate(0.000000, 13.694444)">
                                <g id="3d-box-corner">
                                    <polygon id="Shape" fill="#1CCAFF" points="7.2 7.16562178 0.0260869558 3.84410365 0.0260869558 11.8157472 7.2 15.1372653"></polygon>
                                    <polygon id="Shape" fill="#1C95FF" points="7.2 7.16562178 14.373913 3.84410365 14.373913 11.8157472 7.2 15.1372653"></polygon>
                                    <polygon id="Shape" fill="#1CEEFF" points="14.373913 3.84410365 7.2 0.52258552 0.0260869558 3.84410365 7.2 7.31231112"></polygon>
                                </g>
                            </g>
                            <g id="Group" transform="translate(17.600000, 13.694444)">
                                <g id="3d-box-corner">
                                    <polygon id="Shape" fill="#1CCAFF" points="7.2 7.16562178 0.0260869558 3.84410365 0.0260869558 11.8157472 7.2 15.1372653"></polygon>
                                    <polygon id="Shape" fill="#1C95FF" points="7.2 7.16562178 14.373913 3.84410365 14.373913 11.8157472 7.2 15.1372653"></polygon>
                                    <polygon id="Shape" fill="#1CEEFF" points="14.373913 3.84410365 7.2 0.52258552 0.0260869558 3.84410365 7.2 7.31231112"></polygon>
                                </g>
                            </g>
                            <g id="Group" transform="translate(8.800000, 0.000000)">
                                <g id="3d-box-corner">
                                    <polygon id="Shape" fill="#1CCAFF" points="7.2 7.16562178 0.0260869558 3.84410365 0.0260869558 11.8157472 7.2 15.1372653"></polygon>
                                    <polygon id="Shape" fill="#1C95FF" points="7.2 7.16562178 14.373913 3.84410365 14.373913 11.8157472 7.2 15.1372653"></polygon>
                                    <polygon id="Shape" fill="#1CEEFF" points="14.373913 3.84410365 7.2 0.52258552 0.0260869558 3.84410365 7.2 7.31231112"></polygon>
                                </g>
                            </g>
                        </g>
                    </g>
                </g>
            </g>
        </g>
    </g>
</svg>