<svg width="60" height="60" viewBox="0 0 60 60" xmlns="http://www.w3.org/2000/svg">
  <g fill="none" fill-rule="evenodd">
    <circle fill="#FFB400" fill-rule="nonzero" opacity=".2" cx="30" cy="30" r="30"/>
    <path d="M20.3 12c0-1 .5-1.4 1.4-1.3 1 .4 1.5 1 1.5 2v26.6c0 1.3-.5 2-1.5 2s-1.4-.7-1.4-2V12z" fill="#FFB400" fill-rule="nonzero"/>
    <path d="M19.3 13c0-1 .5-1.4 1.5-1.4 1 .4 1.4 1 1.4 2v26.6c0 1.4-.5 2-1.4 2-1 0-1.5-.6-1.5-2V13z" fill="#FFE300" fill-rule="nonzero"/>
    <path fill="#FFF0CC" fill-rule="nonzero" d="M15 35.5l7.3 3.6 2.3-1.7V24.6l-2.3 1.8-7.3-3.7z"/>
    <path d="M18 27v5.4c0 .4.1.7.5.9l4.3 2.2a1 1 0 0 0 1.4-.9v-4.8a2 2 0 0 0-1-1.7l-3.9-2a1 1 0 0 0-1.4 1z" fill="#FFB400"/>
    <path d="M17 28v5.4c0 .4.2.7.5.9l4.4 2.2a1 1 0 0 0 1.4-1v-4.7a2 2 0 0 0-1.1-1.7l-3.8-2a1 1 0 0 0-1.4 1z" fill="#FFE300"/>
    <g>
      <path d="M28 15.9c0-1 .5-1.4 1.5-1.3 1 .4 1.4 1 1.4 2v26.6c0 1.3-.5 2-1.4 2-1 0-1.5-.7-1.5-2V15.9z" fill="#FFB400" fill-rule="nonzero"/>
      <path d="M27 16.8c0-.9.5-1.3 1.5-1.3 1 .4 1.5 1 1.5 2V44c0 1.4-.5 2-1.5 2s-1.5-.6-1.5-2V16.8z" fill="#FFE300" fill-rule="nonzero"/>
      <path fill="#FFF0CC" fill-rule="nonzero" d="M24.6 30.6l5.9 3.1 2.8-2.1V18.8L30.5 21l-5.9-3.2z"/>
      <path d="M26.6 21.7v5.4c0 .4.2.7.5.9l4.4 2.2a1 1 0 0 0 1.4-1v-4.7a2 2 0 0 0-1-1.7l-4-2a1 1 0 0 0-1.3 1z" fill="#FFFCCF"/>
      <path d="M25.6 22.7V28c0 .4.2.7.5.9l4.4 2.1a1 1 0 0 0 1.4-.8v-4.8a2 2 0 0 0-1-1.8L27 21.8a1 1 0 0 0-1.4.9z" fill="#FFB400"/>
    </g>
    <g>
      <path d="M36.7 19.8c0-1 .5-1.4 1.4-1.3 1 .4 1.5 1 1.5 2V47c0 1.3-.5 2-1.5 2s-1.4-.7-1.4-2V19.8z" fill="#FFB400" fill-rule="nonzero"/>
      <path d="M35.7 20.7c0-.9.5-1.3 1.5-1.3 1 .4 1.4 1 1.4 2V48c0 1.4-.5 2-1.4 2-1 0-1.5-.6-1.5-2V20.7z" fill="#FFE300" fill-rule="nonzero"/>
      <path fill="#FFF0CC" fill-rule="nonzero" d="M33.3 44.3l5.4 2.8 3.3-1.9V32.4l-3.3 2-5.4-3z"/>
      <path d="M35.3 35.4v5.4c0 .3.2.7.5.8l4.4 2.2a1 1 0 0 0 1.4-.9v-4.7a2 2 0 0 0-1.1-1.8l-3.8-1.9a1 1 0 0 0-1.5.9z" fill="#FFB400"/>
      <path d="M34.3 36.3v5.4c0 .4.2.7.5 1l4.4 2a1 1 0 0 0 1.4-.8v-4.8a2 2 0 0 0-1-1.7l-4-2a1 1 0 0 0-1.3 1z" fill="#FFE300"/>
    </g>
  </g>
</svg>
