<svg width="60" height="60" viewBox="0 0 60 60" xmlns="http://www.w3.org/2000/svg">
  <g fill="none" fill-rule="evenodd">
    <circle fill="#FFB400" fill-rule="nonzero" opacity=".2" cx="30" cy="30" r="30"/>
    <path fill="#FFE300" d="M35 17.7l-14-6v33l14 6V36.2z"/>
    <path fill="#FFFCCF" d="M34 20.2l-12-5v27l12 5v-12z"/>
    <path fill="#FFB400" d="M38 16.2v33l-3 1.5v-33z"/>
    <path fill="#FFFCCF" d="M38 16.2l-14-6-3 1.4 14 6.3z"/>
    <path d="M26.8 25.5c-1.6-.1-2.8 1-2.8 2.9v2.7c0 .2-.2.3-.4.3-.4-.2-.8 0-.8.5s.4 1 .8 1.2l8.2 3.1c.5.2.8 0 .8-.6 0-.5-.3-1-.8-1.2a.7.7 0 0 1-.4-.6v-2.7c0-1.8-1.2-3.8-2.8-4.9v-.4c0-.6-.4-1.2-.9-1.4-.5-.2-1 .1-1 .7v.4zm-.5 9l2.8 1.2c0 .8-.6 1.3-1.4 1a2.4 2.4 0 0 1-1.4-2.1z" fill="#FFB400" fill-rule="nonzero"/>
  </g>
</svg>
