<?xml version="1.0" encoding="UTF-8"?>
<svg width="60px" height="60px" viewBox="0 0 60 60" version="1.1" xmlns="http://www.w3.org/2000/svg" xmlns:xlink="http://www.w3.org/1999/xlink">
    <!-- Generator: Sketch 52.2 (67145) - http://www.bohemiancoding.com/sketch -->
    <title>visualisation</title>
    <desc>Created with Sketch.</desc>
    <g id="Icons" stroke="none" stroke-width="1" fill="none" fill-rule="evenodd">
        <g id="Artboard" transform="translate(-138.000000, -1101.000000)">
            <g id="1" transform="translate(93.000000, 1056.000000)">
                <g id="picto">
                    <g id="visualisation" transform="translate(45.000000, 45.000000)">
                        <circle id="Oval-4" fill="#FFB400" fill-rule="nonzero" opacity="0.2" cx="30" cy="30" r="30"></circle>
                        <g id="Group-4" transform="translate(20.000000, 18.000000)">
                            <polygon id="Rectangle-6" fill="#FFB400" points="14.4444444 10.0384615 20 6.69230769 20 12.271003 14.4444444 15.6171568"></polygon>
                            <polygon id="Rectangle-6-Copy-5" fill="#FFB400" points="14.4444444 14.6342519 20 11.288098 20 24.6538462 14.4444444 28"></polygon>
                            <polygon id="Rectangle-6-Copy" fill="#FFFCCF" points="14.4444444 10.0384615 20 6.69230769 5.55555556 0 0 3.34615385"></polygon>
                            <polygon id="Rectangle-6-Copy-2" fill="#FFE300" points="14.4444444 10.0384615 14.4444444 15.6153846 0 8.92307692 0 3.34615385"></polygon>
                            <polygon id="Rectangle-6-Copy-3" fill="#FFE300" points="14.4444444 28 14.4444444 14.6153846 0 7.92307692 0 21.3076923"></polygon>
                            <polygon id="Rectangle-6-Copy-4" fill="#FFFFFF" points="4.84067761 12.9507739 4.84067761 9.26510133 1.67244144 7.76828082 1.67244144 11.5637419"></polygon>
                        </g>
                    </g>
                </g>
            </g>
        </g>
    </g>
</svg>