<svg width="60" height="60" viewBox="0 0 60 60" xmlns="http://www.w3.org/2000/svg">
  <g fill="none" fill-rule="evenodd">
    <circle fill="#FFB400" fill-rule="nonzero" opacity=".2" cx="30" cy="30" r="30"/>
    <path fill="#FFFCCF" d="M50 32.7L19.3 18.6 9 24.1l30.7 14.5z"/>
    <path fill="#FFE300" d="M25.1 22l-6.3-3v7l6.3 3z"/>
    <path fill="#FFB400" d="M30.6 19v7.1L25 29v-7z"/>
    <path fill="#FFFCCF" d="M30.6 19.2l-6.4-3-5.4 2.8 6.3 3z"/>
    <g>
      <path fill="#FFE300" d="M35.7 26.7l-6.3-3v7.1l6.3 3z"/>
      <path fill="#FFB400" d="M41.1 23.9v7l-5.4 2.8v-7z"/>
      <path fill="#FFFCCF" d="M41.1 24l-6.3-3-5.4 2.8 6.3 3z"/>
    </g>
    <g>
      <g fill="#FFB400">
        <path d="M14.2 41.5l5.7-6c.5.8 1.2 1.5 2 2l-5.8 6c-.5.5-1.4.5-1.9 0-.5-.6-.5-1.5 0-2z"/>
        <path d="M20.4 34.5a8.5 8.5 0 0 1 1.5-10.9 7.6 7.6 0 0 1 10.6.5c2.8 3 3.1 7.7.6 11a7.7 7.7 0 0 1-12.7-.6zm3.6 1c2.7 1.5 6 .7 7.8-1.8 1.8-2.5 1.5-6-.6-8.3a5.9 5.9 0 0 0-8-.4c-2.4 2-3 5.4-1.5 8.1.6 1 1.4 1.8 2.3 2.4z" fill-rule="nonzero"/>
      </g>
      <g fill="#FFE300">
        <path d="M13 40.3l5.7-6c.5.8 1.2 1.5 2 2l-5.8 6c-.5.5-1.3.5-1.9 0-.5-.6-.5-1.5 0-2z"/>
        <path d="M19.2 33.4a8.5 8.5 0 0 1 1.5-11 7.6 7.6 0 0 1 10.6.5c2.9 3 3.1 7.7.6 11a7.7 7.7 0 0 1-12.7-.5zm3.7.9c2.6 1.5 6 .8 7.7-1.8 1.8-2.5 1.6-6-.6-8.3a5.9 5.9 0 0 0-8-.4c-2.3 2-3 5.4-1.4 8.2.5 1 1.3 1.8 2.3 2.3z" fill-rule="nonzero"/>
      </g>
    </g>
  </g>
</svg>
