<?xml version="1.0" encoding="UTF-8"?>
<svg width="60px" height="60px" viewBox="0 0 60 60" version="1.1" xmlns="http://www.w3.org/2000/svg" xmlns:xlink="http://www.w3.org/1999/xlink">
    <!-- Generator: Sketch 52.2 (67145) - http://www.bohemiancoding.com/sketch -->
    <title>processus</title>
    <desc>Created with Sketch.</desc>
    <g id="Icons" stroke="none" stroke-width="1" fill="none" fill-rule="evenodd">
        <g id="Artboard" transform="translate(-818.000000, -441.000000)">
            <g id="2" transform="translate(773.000000, 396.000000)">
                <g id="picto">
                    <g id="processus" transform="translate(45.000000, 45.000000)">
                        <g id="picto-strategy">
                            <circle id="Oval-4" fill="#FFB400" fill-rule="nonzero" opacity="0.2" cx="30" cy="30" r="30"></circle>
                            <g id="box" transform="translate(20.000000, 17.000000)">
                                <polygon id="Rectangle-6" fill="#FFB400" points="14.4444444 10.0384615 20 6.69230769 20 12.271003 14.4444444 15.6171568"></polygon>
                                <polygon id="Rectangle-6-Copy-5" fill="#FFB400" points="14.4444444 14.6342519 20 11.288098 20 24.6538462 14.4444444 28"></polygon>
                                <polygon id="Rectangle-6-Copy" fill="#FFFCCF" points="14.4444444 10.0384615 20 6.69230769 5.55555556 0 0 3.34615385"></polygon>
                                <polygon id="Rectangle-6-Copy-2" fill="#FFE300" points="14.4444444 10.0384615 14.4444444 15.6153846 0 8.92307692 0 3.34615385"></polygon>
                                <polygon id="Rectangle-6-Copy-3" fill="#FFE300" points="14.4444444 28 14.4444444 14.6153846 0 7.92307692 0 21.3076923"></polygon>
                            </g>
                            <g id="noun_strategy_71311" transform="translate(21.000000, 24.000000)" fill="#FFB400">
                                <path d="M2.76034595,10.8067199 L2.76034595,7.73185233 L10.1705471,12.0976554 C10.4667766,12.2055916 10.5883925,12.0489304 10.5883925,11.8209022 L10.5705406,6.91156921 L10.975555,7.43704289 C11.0798769,7.58928315 11.2756897,7.7216101 11.4440272,7.78294673 C11.5501622,7.82161878 11.6734517,7.84206377 11.7670346,7.82548932 C12.0097085,7.78250552 12.0749794,7.54905848 11.9048287,7.30025844 L10.5883925,5.37555515 C10.5811402,5.36518287 10.5710985,5.35937686 10.5638462,5.34943401 C10.4656609,5.21961301 10.3224275,5.10300876 10.1526952,5.04116397 C9.9836603,4.97957326 9.8391717,4.99091174 9.74168374,5.04986534 C9.73373407,5.05383965 9.72201878,5.05214758 9.71490593,5.05728566 L8.39484355,6.02176593 C8.22343767,6.14611412 8.28312988,6.42509357 8.52482751,6.64456625 C8.76750142,6.86396523 9.02147221,6.91184285 9.19148341,6.78741592 L9.45591429,6.50586584 L9.47376616,10.9853376 L2.10763683,6.63559284 C1.8114073,6.52765664 1.6457196,6.66911846 1.6457196,6.89714669 L1.6457196,10.4005871 C0.529977497,10.1792402 0,10.6263093 0,11.3937038 C0,12.3045284 0.943359945,13.3895639 2.12716231,13.8209022 C3.31096468,14.2522404 4.32294276,13.8797724 4.32294276,12.9688404 C4.32015341,12.2004296 3.318217,11.1946452 2.76034595,10.8067199 Z M2.10652108,12.9870472 C1.51406203,12.7711748 1.03373505,12.2259895 1.03373505,11.7703625 C1.03373505,11.3147354 1.51406203,11.1200099 2.10652108,11.3358823 C2.69842227,11.5515514 3.17930711,12.0972621 3.17930711,12.5521376 C3.17930711,13.0077647 2.69842227,13.2027163 2.10652108,12.9870472 Z" id="Shape" fill-rule="nonzero"></path>
                                <path d="M1.82874978,4.27192441 L3.17463235,3.63059345 L4.52051493,5.42475387 C4.61538779,5.55122638 4.74003458,5.64753029 4.86417673,5.7006979 C4.98831888,5.75386551 5.11195639,5.76389683 5.20733389,5.71890477 C5.39657498,5.62872888 5.39657498,5.35066097 5.20733389,5.09838869 L3.86094668,3.30446874 L5.20682925,2.66313778 C5.39607033,2.57296189 5.39607033,2.29489398 5.20682925,2.0426217 C5.01758817,1.79034943 4.71026065,1.65872716 4.52051493,1.74868693 L3.17463235,2.39001789 L1.82874978,0.595857466 C1.63900405,0.343369062 1.33268582,0.212179058 1.14243545,0.301922694 C0.95268973,0.39188246 0.953194372,0.670166502 1.14243545,0.922438777 L2.48831803,2.7165992 L1.14193081,3.35771403 C0.95268973,3.44788992 0.95268973,3.72595783 1.14193081,3.97823011 C1.23680367,4.10470261 1.36145047,4.20100652 1.48559262,4.25417413 C1.60973477,4.30734175 1.73387692,4.31713259 1.82874978,4.27192441 Z" id="Path"></path>
                            </g>
                        </g>
                    </g>
                </g>
            </g>
        </g>
    </g>
</svg>