<?xml version="1.0" encoding="UTF-8"?>
<svg width="61px" height="61px" viewBox="0 0 61 61" version="1.1" xmlns="http://www.w3.org/2000/svg" xmlns:xlink="http://www.w3.org/1999/xlink">
    <!-- Generator: Sketch 52.2 (67145) - http://www.bohemiancoding.com/sketch -->
    <title>personnalisation</title>
    <desc>Created with Sketch.</desc>
    <defs>
        <path d="M30.534,60 C47.102,60 60.534,46.568 60.534,30 C60.534,13.432 47.102,0 30.534,0 C13.966,0 0.534,13.432 0.534,30 C0.534,46.568 13.966,60 30.534,60 Z" id="path-1"></path>
        <path d="M0.519,1.853 L0.519,29.171 C0.519,30.517 1.011,31.122 1.987,31.122 C2.963,31.122 3.455,30.517 3.455,29.171 L3.455,2.513 C3.455,1.615 2.965,0.964 1.987,0.561 C1.949,0.56 1.912,0.559 1.876,0.559 C0.972,0.559 0.519,0.991 0.519,1.853 Z" id="path-3"></path>
        <path d="M0.554,1.829 L0.554,29.146 C0.554,30.493 1.047,31.098 2.022,31.098 C2.998,31.098 3.49,30.493 3.49,29.146 L3.49,2.489 C3.49,1.59 3.002,0.94 2.022,0.537 C1.984,0.536 1.946,0.536 1.909,0.536 C1.006,0.536 0.554,0.968 0.554,1.829 Z" id="path-5"></path>
        <path d="M0.208,1.276 C0.141,1.41 0.105,1.559 0.105,1.71 L0.105,7.107 C0.105,7.475 0.313,7.812 0.643,7.975 L5.013,10.159 C5.493,10.398 6.077,10.204 6.316,9.724 C6.384,9.588 6.419,9.44 6.419,9.289 L6.419,4.494 C6.419,3.757 6.002,3.084 5.344,2.754 L1.512,0.84 C1.373,0.771 1.224,0.738 1.078,0.738 C0.721,0.738 0.378,0.935 0.208,1.276 Z" id="path-7"></path>
        <path d="M0.243,1.251 C0.176,1.386 0.141,1.535 0.141,1.686 L0.141,7.083 C0.141,7.45 0.349,7.787 0.679,7.951 L5.048,10.134 C5.529,10.374 6.112,10.179 6.352,9.7 C6.42,9.564 6.455,9.415 6.455,9.265 L6.455,4.47 C6.455,3.733 6.038,3.06 5.38,2.73 L1.547,0.816 C1.408,0.746 1.259,0.713 1.113,0.713 C0.757,0.713 0.414,0.91 0.243,1.251 Z" id="path-9"></path>
        <path d="M0.197,1.756 L0.197,29.073 C0.197,30.421 0.689,31.025 1.665,31.025 C2.641,31.025 3.133,30.421 3.133,29.073 L3.133,2.415 C3.133,1.517 2.643,0.866 1.665,0.464 C1.626,0.462 1.589,0.462 1.552,0.462 C0.649,0.462 0.197,0.894 0.197,1.756 Z" id="path-11"></path>
        <path d="M0.233,1.732 L0.233,29.049 C0.233,30.396 0.725,31 1.701,31 C2.677,31 3.169,30.396 3.169,29.049 L3.169,2.391 C3.169,1.493 2.679,0.842 1.701,0.44 C1.662,0.438 1.625,0.438 1.588,0.438 C0.685,0.438 0.233,0.87 0.233,1.732 Z" id="path-13"></path>
        <path d="M0.887,0.934 C0.819,1.069 0.784,1.218 0.784,1.369 L0.784,6.764 C0.784,7.133 0.992,7.47 1.321,7.635 L5.691,9.817 C6.171,10.057 6.755,9.862 6.995,9.382 C7.062,9.248 7.098,9.098 7.098,8.948 L7.098,4.153 C7.098,3.416 6.681,2.742 6.022,2.413 L2.19,0.5 C2.05,0.429 1.902,0.397 1.756,0.397 C1.4,0.397 1.057,0.593 0.887,0.934 Z" id="path-15"></path>
        <path d="M0.922,0.91 C0.854,1.045 0.819,1.193 0.819,1.344 L0.819,6.74 C0.819,7.109 1.027,7.446 1.357,7.61 L5.727,9.793 C6.208,10.033 6.791,9.838 7.031,9.357 C7.099,9.223 7.134,9.074 7.134,8.923 L7.134,4.128 C7.134,3.391 6.717,2.718 6.058,2.388 L2.226,0.475 C2.087,0.406 1.938,0.373 1.791,0.373 C1.435,0.373 1.092,0.569 0.922,0.91 Z" id="path-17"></path>
    </defs>
    <g id="Icons" stroke="none" stroke-width="1" fill="none" fill-rule="evenodd">
        <g id="Artboard" transform="translate(-137.000000, -220.000000)">
            <g id="1" transform="translate(93.000000, 176.000000)">
                <g id="picto">
                    <g id="personnalisation" transform="translate(44.000000, 44.000000)">
                        <circle id="Oval-4" fill="#FFB400" fill-rule="nonzero" opacity="0.2" cx="31" cy="31" r="30"></circle>
                        <g id="curseurs">
                            <g id="Group-3" transform="translate(0.000000, 0.360000)">
                                <mask id="mask-2" fill="white">
                                    <use xlink:href="#path-1"></use>
                                </mask>
                                <use id="Clip-2" fill="#FFF0CC" xlink:href="#path-1"></use>
                                <polygon id="Fill-1" fill="#FFF0CC" opacity="0.2" mask="url(#mask-2)" points="-4.466 65 65.534 65 65.534 -5 -4.466 -5"></polygon>
                            </g>
                            <g id="Group-6" transform="translate(24.000000, 13.360000)">
                                <mask id="mask-4" fill="white">
                                    <use xlink:href="#path-3"></use>
                                </mask>
                                <g id="Clip-5"></g>
                                <polygon id="Fill-4" fill="#FBB315" mask="url(#mask-4)" points="-4.481 36.122 8.455 36.122 8.455 -4.441 -4.481 -4.441"></polygon>
                            </g>
                            <g id="Group-9" transform="translate(23.000000, 14.360000)">
                                <mask id="mask-6" fill="white">
                                    <use xlink:href="#path-5"></use>
                                </mask>
                                <g id="Clip-8"></g>
                                <polygon id="Fill-7" fill="#FDE200" mask="url(#mask-6)" points="-4.445 36.098 8.491 36.098 8.491 -4.465 -4.445 -4.465"></polygon>
                            </g>
                            <polygon id="Fill-10" fill="#FFF0CD" points="20.643 29.6493 26.499 32.7293 29.322 30.5773 29.322 17.7843 26.499 20.0153 20.643 16.8093"></polygon>
                            <g id="Group-13" transform="translate(23.000000, 19.360000)">
                                <mask id="mask-8" fill="white">
                                    <use xlink:href="#path-7"></use>
                                </mask>
                                <g id="Clip-12"></g>
                                <polygon id="Fill-11" fill="#FBB315" mask="url(#mask-8)" points="-4.895 15.261 11.419 15.261 11.419 -4.262 -4.895 -4.262"></polygon>
                            </g>
                            <g id="Group-16" transform="translate(22.000000, 20.360000)">
                                <mask id="mask-10" fill="white">
                                    <use xlink:href="#path-9"></use>
                                </mask>
                                <g id="Clip-15"></g>
                                <polygon id="Fill-14" fill="#FDE200" mask="url(#mask-10)" points="-4.859 15.236 11.455 15.236 11.455 -4.287 -4.859 -4.287"></polygon>
                            </g>
                            <g id="Group-19" transform="translate(33.000000, 17.360000)">
                                <mask id="mask-12" fill="white">
                                    <use xlink:href="#path-11"></use>
                                </mask>
                                <g id="Clip-18"></g>
                                <polygon id="Fill-17" fill="#FBB315" mask="url(#mask-12)" points="-4.803 36.024 8.133 36.024 8.133 -4.539 -4.803 -4.539"></polygon>
                            </g>
                            <g id="Group-22" transform="translate(32.000000, 18.360000)">
                                <mask id="mask-14" fill="white">
                                    <use xlink:href="#path-13"></use>
                                </mask>
                                <g id="Clip-21"></g>
                                <polygon id="Fill-20" fill="#FDE200" mask="url(#mask-14)" points="-4.767 36 8.169 36 8.169 -4.563 -4.767 -4.563"></polygon>
                            </g>
                            <polygon id="Fill-23" fill="#FFF0CD" points="29.7537 43.5614 35.1597 46.3314 38.4327 44.4904 38.4327 31.6974 35.1597 33.6484 29.7537 30.7224"></polygon>
                            <g id="Group-26" transform="translate(31.000000, 33.360000)">
                                <mask id="mask-16" fill="white">
                                    <use xlink:href="#path-15"></use>
                                </mask>
                                <g id="Clip-25"></g>
                                <polygon id="Fill-24" fill="#FBB315" mask="url(#mask-16)" points="-4.216 14.92 12.098 14.92 12.098 -4.604 -4.216 -4.604"></polygon>
                            </g>
                            <g id="Group-29" transform="translate(30.000000, 34.360000)">
                                <mask id="mask-18" fill="white">
                                    <use xlink:href="#path-17"></use>
                                </mask>
                                <g id="Clip-28"></g>
                                <polygon id="Fill-27" fill="#FDE200" mask="url(#mask-18)" points="-4.18 14.896 12.134 14.896 12.134 -4.628 -4.18 -4.628"></polygon>
                            </g>
                            <g id="Group-46" transform="translate(22.000000, 13.360000)">
                                <path d="M0.4782,7.9106 L1.3752,7.0326 C1.3752,7.0326 1.7832,6.5736 2.3982,6.7896 C2.8672,6.9546 6.3442,8.7546 6.3442,8.7546 C6.3442,8.7546 6.8682,8.9806 7.1282,9.4806 L6.1862,10.4786 C6.1862,10.4786 5.9782,10.0316 5.3792,9.7296 C4.6992,9.3876 1.5472,7.8156 1.5472,7.8156 C1.5472,7.8156 0.9212,7.5226 0.4782,7.9106" id="Fill-30" fill="#FCF8CE"></path>
                                <path d="M6.2189,16.8979 L7.0939,16.0139 L6.4559,16.1589 C6.4559,16.1589 6.4819,16.6139 6.2189,16.8979" id="Fill-32" fill="#FBB315"></path>
                                <path d="M9.1726,21.5864 L10.0376,20.7034 C10.0376,20.7034 10.4486,20.2334 11.0646,20.4504 C11.5336,20.6154 15.0226,22.4134 15.0226,22.4134 C15.0226,22.4134 15.5626,22.6564 15.8226,23.1564 L14.8806,24.1544 C14.8806,24.1544 14.6726,23.7084 14.0736,23.4064 C13.3936,23.0634 10.2416,21.4914 10.2416,21.4914 C10.2416,21.4914 9.6156,21.1984 9.1726,21.5864" id="Fill-34" fill="#FCF8CE"></path>
                                <path d="M14.904,30.5518 L15.779,29.6678 L15.141,29.8118 C15.141,29.8118 15.167,30.2678 14.904,30.5518" id="Fill-36" fill="#FBB315"></path>
                                <path d="M1.8928,1.8535 L2.8788,0.8665 C2.8788,0.8665 3.2518,0.4465 3.9868,0.5615 C4.7218,0.6755 5.2118,1.4875 5.2718,1.6575 L4.3108,2.6085 C4.3108,2.6085 4.0198,2.0275 3.3098,1.6575 C2.5988,1.2865 1.8928,1.8535 1.8928,1.8535" id="Fill-38" fill="#FCF8CE"></path>
                                <path d="M5.01,30.7393 L4.029,31.7333 C4.029,31.7333 4.351,31.3833 4.448,30.8113 L5.01,30.7393 Z" id="Fill-40" fill="#FBB315"></path>
                                <path d="M10.5568,5.771 L11.4958,4.811 C11.4958,4.811 11.9108,4.343 12.6458,4.458 C13.3798,4.573 13.8928,5.385 13.9528,5.555 L12.9748,6.526 C12.9748,6.526 12.6838,5.945 11.9738,5.575 C11.2628,5.204 10.5568,5.771 10.5568,5.771" id="Fill-42" fill="#FCF8CE"></path>
                                <path d="M13.6779,34.6597 L12.6969,35.6537 C12.6969,35.6537 13.0189,35.3037 13.1159,34.7317 L13.6779,34.6597 Z" id="Fill-44" fill="#FBB315"></path>
                            </g>
                        </g>
                    </g>
                </g>
            </g>
        </g>
    </g>
</svg>