<svg width="60" height="60" viewBox="0 0 60 60" xmlns="http://www.w3.org/2000/svg">
  <g fill="none" fill-rule="evenodd">
    <circle fill="#FFB400" fill-rule="nonzero" opacity=".2" cx="30" cy="30" r="30"/>
    <path fill="#FFE300" d="M38.4 24.5L17 15v23l21.3 9.6z"/>
    <path fill="#FFB400" d="M43 22.2v23l-4.6 2.3v-23z"/>
    <path fill="#FFFCCF" d="M43 22.2l-21.3-9.5-4.6 2.2 21.3 10z"/>
    <g fill="#FFB400">
      <path d="M23.6 31.3v-1.6l9 4c.4.1.5-.1.5-.5v-4.8l.5.8.6.5.4.1c.3 0 .4-.4.2-.8l-1.6-2.8c-.2-.3-.4-.4-.6-.5h-.5L30.5 27c-.2.2-.2.6.1 1 .3.3.6.3.9.2l.3-.5V32l-9-4c-.3-.1-.5 0-.5.4v2.3c-1.4-.4-2 .3-2 1.4 0 1.4 1.1 3 2.5 3.6 1.5.7 2.7.1 2.7-1.2 0-1.2-1.2-2.7-1.9-3.2zm-.8 3.2c-.7-.3-1.3-1.1-1.3-1.8s.6-1 1.3-.7c.7.4 1.3 1.2 1.3 1.8 0 .7-.6 1-1.3.7z" fill-rule="nonzero"/>
      <path d="M20.5 25.8l1.8-.9 1.7 2.6c.2.2.3.4.5.4.2.1.3.1.4 0 .3 0 .3-.5 0-.8l-1.7-2.7 1.7-1c.3 0 .3-.4 0-.8-.2-.4-.6-.6-.9-.4l-1.7.9-1.8-2.6c-.2-.4-.6-.6-.9-.5-.2.2-.2.6 0 1l1.8 2.6-1.8 1c-.2 0-.2.4 0 .8l.5.4c.1.1.3.1.4 0zM34.6 38.8l1.7-1c.3 0 .3-.4 0-.8-.2-.4-.6-.6-.9-.4l-1.7.9-1.8-2.6c-.3-.4-.7-.6-.9-.5-.2.2-.2.6 0 1l1.8 2.6-1.8 1c-.2 0-.2.4 0 .8l.4.4h.5l1.8-.9 1.7 2.6c.1.2.3.4.5.4.1.1.3.1.4 0 .3 0 .3-.5 0-.8l-1.7-2.7z"/>
    </g>
  </g>
</svg>
