<?xml version="1.0" encoding="UTF-8"?>
<svg width="60px" height="60px" viewBox="0 0 60 60" version="1.1" xmlns="http://www.w3.org/2000/svg" xmlns:xlink="http://www.w3.org/1999/xlink">
    <!-- Generator: Sketch 52.2 (67145) - http://www.bohemiancoding.com/sketch -->
    <title>identification</title>
    <desc>Created with Sketch.</desc>
    <defs>
        <path d="M0,30 C0,13.431 13.432,0 30,0 C46.568,0 60,13.431 60,30 C60,46.568 46.568,60 30,60 C13.432,60 0,46.568 0,30 Z" id="path-1"></path>
        <path d="M1.297,7.78 L8.496,0.354 C9.143,1.343 10.156,2.002 11.128,2.649 L3.725,10.283 C3.054,10.973 1.969,10.972 1.299,10.281 C0.629,9.591 0.629,8.472 1.297,7.78 Z" id="path-3"></path>
        <path d="M4.249,2.974 C6.145,1.35 8.458,0.546 10.765,0.546 C13.35,0.546 15.929,1.556 17.903,3.55 C21.638,7.322 22.002,13.396 18.745,17.615 C15.489,21.832 9.666,22.827 5.264,19.918 C4.087,19.136 3.078,18.117 2.296,16.921 C-0.616,12.443 0.227,6.42 4.249,2.974 Z M7.017,18.111 C8.207,18.785 9.501,19.109 10.781,19.109 C13.194,19.109 15.557,17.958 17.079,15.835 C19.408,12.587 19.05,8.064 16.239,5.249 C13.43,2.433 9.034,2.194 5.953,4.688 C2.871,7.183 2.053,11.642 4.037,15.125 C4.749,16.381 5.779,17.413 7.017,18.111 Z" id="path-5"></path>
        <path d="M0.779,8.28 L8.157,0.671 C8.803,1.661 9.638,2.503 10.611,3.148 L3.206,10.783 C2.582,11.425 1.6,11.469 0.927,10.915 C0.876,10.874 0.827,10.829 0.78,10.781 C0.111,10.091 0.11,8.971 0.779,8.28 Z" id="path-7"></path>
        <path d="M3.73,2.474 C5.626,0.85 7.94,0.047 10.246,0.047 C12.832,0.047 15.41,1.056 17.385,3.05 C21.12,6.822 21.484,12.897 18.227,17.114 C14.969,21.332 9.147,22.327 4.745,19.418 C3.569,18.637 2.559,17.616 1.777,16.42 C-1.135,11.943 -0.291,5.919 3.73,2.474 Z M6.498,17.61 C7.688,18.284 8.983,18.608 10.263,18.608 C12.676,18.609 15.039,17.458 16.561,15.336 C18.89,12.087 18.531,7.563 15.722,4.748 C12.911,1.933 8.516,1.694 5.435,4.188 C2.352,6.682 1.534,11.142 3.519,14.625 C4.231,15.881 5.26,16.913 6.498,17.61 Z" id="path-9"></path>
        <path d="M30,60 C46.568,60 60,46.568 60,30 C60,13.431 46.568,0 30,0 C13.432,0 0,13.431 0,30 C0,46.568 13.432,60 30,60 Z" id="path-11"></path>
    </defs>
    <g id="Icons" stroke="none" stroke-width="1" fill="none" fill-rule="evenodd">
        <g id="Artboard" transform="translate(-818.000000, -661.000000)">
            <g id="2" transform="translate(773.000000, 616.000000)">
                <g id="picto">
                    <g id="identification" transform="translate(45.000000, 45.000000)">
                        <g id="Group-20">
                            <g id="Group-16">
                                <g id="Group-3">
                                    <mask id="mask-2" fill="white">
                                        <use xlink:href="#path-1"></use>
                                    </mask>
                                    <g id="Clip-2"></g>
                                    <polygon id="Fill-1" fill="#FBB315" opacity="0.2" mask="url(#mask-2)" points="-4.667 65.469 65.333 65.469 65.333 -4.531 -4.667 -4.531"></polygon>
                                </g>
                                <g id="Group-6" transform="translate(15.000000, 35.000000)">
                                    <mask id="mask-4" fill="white">
                                        <use xlink:href="#path-3"></use>
                                    </mask>
                                    <g id="Clip-5"></g>
                                    <polygon id="Fill-4" fill="#FBB315" mask="url(#mask-4)" points="-4.204 15.799 16.128 15.799 16.128 -4.829 -4.204 -4.829"></polygon>
                                </g>
                                <g id="Group-9" transform="translate(22.000000, 17.000000)">
                                    <mask id="mask-6" fill="white">
                                        <use xlink:href="#path-5"></use>
                                    </mask>
                                    <g id="Clip-8"></g>
                                    <polygon id="Fill-7" fill="#FBB315" mask="url(#mask-6)" points="-4.433 26.581 25.965 26.581 25.965 -4.453 -4.433 -4.453"></polygon>
                                </g>
                                <g id="Group-12" transform="translate(14.000000, 33.000000)">
                                    <mask id="mask-8" fill="white">
                                        <use xlink:href="#path-7"></use>
                                    </mask>
                                    <g id="Clip-11"></g>
                                    <polygon id="Fill-10" fill="#FDE200" mask="url(#mask-8)" points="-4.722 16.299 15.61 16.299 15.61 -4.329 -4.722 -4.329"></polygon>
                                </g>
                                <g id="Group-15" transform="translate(21.000000, 16.000000)">
                                    <mask id="mask-10" fill="white">
                                        <use xlink:href="#path-9"></use>
                                    </mask>
                                    <g id="Clip-14"></g>
                                    <polygon id="Fill-13" fill="#FDE200" mask="url(#mask-10)" points="-4.951 26.081 25.447 26.081 25.447 -4.953 -4.951 -4.953"></polygon>
                                </g>
                            </g>
                            <g id="Group-19">
                                <mask id="mask-12" fill="white">
                                    <use xlink:href="#path-11"></use>
                                </mask>
                                <g id="Clip-18"></g>
                                <path d="M14.7207,43.7124 L16.3467,45.3274 L15.8487,44.2934 C15.8487,44.2934 15.2507,44.2824 14.7207,43.7124" id="Fill-17" fill="#FBB315" mask="url(#mask-12)"></path>
                            </g>
                        </g>
                        <g id="Group-27" transform="translate(22.000000, 18.000000)">
                            <path d="M2.5898,18.1631 L4.1278,19.6481 C4.1278,19.6481 2.7858,18.8091 2.3718,18.3951 L2.5898,18.1631 Z" id="Fill-21" fill="#FBB315"></path>
                            <path d="M4.1279,19.6484 L0.1569,15.6714 C0.1569,15.6714 1.0999,17.3164 2.5899,18.1634 L4.1279,19.6484 Z" id="Fill-23" fill="#FCF8CE"></path>
                            <path d="M4.6182,15.0322 C4.6182,15.0322 2.7962,12.7422 3.0062,9.4252 C3.2162,6.1072 5.2252,4.4252 5.4822,4.1682 C5.7392,3.9112 7.5382,2.0422 10.7862,1.9952 C14.0332,1.9492 15.6922,3.9112 15.6922,3.9112 C15.6922,3.9112 13.9402,1.2482 10.8332,0.6402 C7.7252,0.0332 5.5062,1.2712 4.1042,2.5092 C2.7022,3.7472 1.6512,5.5932 1.4402,8.1162 C1.2302,10.6402 2.5622,13.4672 4.6182,15.0322" id="Fill-25" fill="#FCF8CE"></path>
                        </g>
                    </g>
                </g>
            </g>
        </g>
    </g>
</svg>