<svg width="29" height="29" viewBox="0 0 29 29" xmlns="http://www.w3.org/2000/svg">
  <g stroke-width="1.9" fill="none" fill-rule="evenodd" stroke-linecap="round" stroke-linejoin="round">
    <path d="M15.3 22.8H3.5c-.9 0-1.7-.8-1.7-1.8V3.6c0-1 .8-1.7 1.7-1.7h17c.8 0 1.6.7 1.6 1.7v12.2" stroke="#38467A"/>
    <path d="M27.2 22.8V21M27.2 17.5c0-1-.8-1.7-1.7-1.7M15.3 22.8V21M15.3 17.5c0-1 .8-1.7 1.7-1.7M27.2 26.2c0 1-.8 1.8-1.7 1.8M15.3 26.2c0 1 .8 1.8 1.7 1.8M22 15.8h-1.6M22 28h-1.6" stroke="#00D1C1"/>
  </g>
</svg>
