<svg width="29" height="22" viewBox="0 0 29 22" xmlns="http://www.w3.org/2000/svg">
  <g stroke-width="1.8" fill="none" fill-rule="evenodd" stroke-linecap="round" stroke-linejoin="round">
    <path d="M10.9 20.4v-1c0-2 1.6-3.7 3.6-3.7s3.6 1.7 3.6 3.7v1M17.2 7.3l-2.7 8.4" stroke="#00D1C1"/>
    <path d="M14.5 1.6c-3.6 0-7.1 1.6-9.7 4.3C2.3 8.5.8 12 1 15.9v2.6c0 1 .8 1.9 1.8 1.9h23.6c1 0 1.8-.9 1.8-1.9v-2.6A14 14 0 0 0 14.5 1.6z" stroke="#38467A"/>
    <path d="M5.9 14.8c-.3 0-.5.2-.5.4 0 .3.2.5.5.5.2 0 .4-.2.4-.5 0-.2-.2-.4-.4-.4M7.7 10c-.2 0-.5.3-.5.5 0 .3.3.5.5.5.3 0 .5-.2.5-.5 0-.2-.2-.4-.5-.4M23.1 14.8c-.2 0-.4.2-.4.4 0 .3.2.5.4.5.3 0 .5-.2.5-.5 0-.2-.2-.4-.5-.4M21.3 10c-.3 0-.5.3-.5.5 0 .3.2.5.5.5.2 0 .4-.2.4-.5 0-.2-.2-.4-.4-.4M11.3 6.3c-.2 0-.4.2-.4.5 0 .2.2.5.4.5.3 0 .5-.3.5-.5 0-.3-.2-.5-.5-.5" stroke="#38467A"/>
  </g>
</svg>
