<svg width="60" height="60" xmlns="http://www.w3.org/2000/svg">
  <g fill="none" fill-rule="evenodd">
    <circle fill="#00D1C1" fill-rule="nonzero" opacity=".2" cx="30" cy="30" r="30"/>
    <path d="M20 18.7H37c1.3 0 2.4 1 2.4 2.4v20.4H24.5c-1.4 0-2.4-1-2.4-2.4V21.9h-2V18.7z" fill="#17E2B3"/>
    <path d="M18 20.7a2 2 0 0 1 4 0v4.4h-2.7c-.7 0-1.2-.5-1.2-1.2v-3.2z" fill="#54C4C2"/>
    <path d="M26.9 36.3c0-.7.5-1.2 1.2-1.2h12.4c.6 0 1.2.5 1.2 1.2v2c0 1.8-1.5 3.2-3.2 3.2H24.9c1-.2 2-1.2 2-2.4v-2.8z" fill="#00D1C1"/>
  </g>
</svg>
