<svg width="26" height="31" viewBox="0 0 26 31" xmlns="http://www.w3.org/2000/svg">
  <g stroke="#38467A" stroke-width="1.9" fill="none" fill-rule="evenodd" stroke-linecap="round" stroke-linejoin="round">
    <path d="M24.7 27.3c0 1-.8 1.8-1.8 1.8H3.1c-1 0-1.8-.8-1.8-1.8V3.7c0-1 .8-1.8 1.8-1.8h12.8c.4 0 .9.2 1.2.5l7 7.1c.4.4.6.8.6 1.3v16.5z"/>
    <path d="M24.7 11h-7.2c-1 0-1.8-.8-1.8-1.8V1.9M6 15c.6.7 1.4 1.1 2.3 1 1.3 0 2.4-.8 2.4-1.8s-1-1.9-2.4-1.9-2.5-.8-2.5-1.8 1.1-2 2.5-2c.8 0 1.7.4 2.2 1.1M8.3 16v1.3M8.3 7.3v1.3M13 19.1h7.2M6.7 24.6h13.5"/>
  </g>
</svg>