<?xml version="1.0" encoding="UTF-8"?>
<svg width="60px" height="60px" viewBox="0 0 60 60" version="1.1" xmlns="http://www.w3.org/2000/svg" xmlns:xlink="http://www.w3.org/1999/xlink">
    <!-- Generator: Sketch 52.2 (67145) - http://www.bohemiancoding.com/sketch -->
    <title>organisation</title>
    <desc>Created with Sketch.</desc>
    <g id="Icons" stroke="none" stroke-width="1" fill="none" fill-rule="evenodd">
        <g id="Artboard" transform="translate(-138.000000, -2991.000000)">
            <g id="1" transform="translate(93.000000, 2946.000000)">
                <g id="picto">
                    <g id="organisation" transform="translate(45.000000, 45.000000)">
                        <circle id="Oval-4" fill="#FB6D6D" fill-rule="nonzero" opacity="0.2" cx="30" cy="30" r="30"></circle>
                        <polygon id="Shape" fill-opacity="0.4" fill="#FB6D6D" points="21.3571429 17.0439111 21.3571429 23 38.3214286 30.9487179 38.3214286 24.9926291"></polygon>
                        <g id="download" transform="translate(16.000000, 17.000000)">
                            <g id="3d-box-corner" transform="translate(0.000000, 0.500000)">
                                <polygon id="Shape" fill="#FFA6B0" points="0.056547619 0.900862069 0.056547619 5.35775862 15.6071429 12.6314655 15.6071429 8.17456897"></polygon>
                                <polygon id="Shape" fill="#FB6D6D" points="17 7.5 17 11.5 15.6071429 12.6314655 15.6071429 8.17456897"></polygon>
                                <polygon id="Shape" fill="#FFCBFE" points="17 7.5 1.44940476 0.226293103 0.056547619 0.900862069 15.6071429 8.49580016"></polygon>
                            </g>
                        </g>
                        <g id="download" transform="translate(21.000000, 27.000000)">
                            <g id="3d-box-corner" transform="translate(0.000000, 0.500000)">
                                <polygon id="Shape" fill="#FFA6B0" points="0.056547619 0.900862069 0.056547619 5.35775862 15.6071429 12.6314655 15.6071429 8.17456897"></polygon>
                                <polygon id="Shape" fill="#FB6D6D" points="17 7.5 17 11.5 15.6071429 12.6314655 15.6071429 8.17456897"></polygon>
                                <polygon id="Shape" fill="#FFCBFE" points="17 7.5 1.44940476 0.226293103 0.056547619 0.900862069 15.6071429 8.49580016"></polygon>
                            </g>
                        </g>
                        <g id="download" transform="translate(21.000000, 34.000000)">
                            <g id="3d-box-corner" transform="translate(0.000000, 0.500000)">
                                <polygon id="Shape" fill="#FFA6B0" points="0.056547619 0.900862069 0.056547619 5.35775862 15.6071429 12.6314655 15.6071429 8.17456897"></polygon>
                                <polygon id="Shape" fill="#FB6D6D" points="17 7.5 17 11.5 15.6071429 12.6314655 15.6071429 8.17456897"></polygon>
                                <polygon id="Shape" fill="#FFCBFE" points="17 7.5 1.44940476 0.226293103 0.056547619 0.900862069 15.6071429 8.49580016"></polygon>
                            </g>
                        </g>
                    </g>
                </g>
            </g>
        </g>
    </g>
</svg>