<?xml version="1.0" encoding="UTF-8"?>
<svg width="60px" height="60px" viewBox="0 0 60 60" version="1.1" xmlns="http://www.w3.org/2000/svg" xmlns:xlink="http://www.w3.org/1999/xlink">
    <!-- Generator: Sketch 52.2 (67145) - http://www.bohemiancoding.com/sketch -->
    <title>performances</title>
    <desc>Created with Sketch.</desc>
    <g id="Icons" stroke="none" stroke-width="1" fill="none" fill-rule="evenodd">
        <g id="Artboard" transform="translate(-818.000000, -2991.000000)">
            <g id="2" transform="translate(773.000000, 2946.000000)">
                <g id="picto">
                    <g id="performances" transform="translate(45.000000, 45.000000)">
                        <circle id="Oval-4" fill="#FB6D6D" fill-rule="nonzero" opacity="0.2" cx="30" cy="30" r="30"></circle>
                        <g id="Group-4" transform="translate(20.000000, 16.000000)">
                            <polygon id="Rectangle-6" fill="#FB6D6D" points="14.4444444 10.0384615 20 6.69230769 20 12.271003 14.4444444 15.6171568"></polygon>
                            <polygon id="Rectangle-6-Copy-5" fill="#FB6D6D" points="14.4444444 14.6342519 20 11.288098 20 24.6538462 14.4444444 28"></polygon>
                            <polygon id="Rectangle-6-Copy" fill="#FFCBFE" points="14.4444444 10.0384615 20 6.69230769 5.55555556 0 0 3.34615385"></polygon>
                            <polygon id="Rectangle-6-Copy-2" fill="#FFA6B0" points="14.4444444 10.0384615 14.4444444 15.6153846 0 8.92307692 0 3.34615385"></polygon>
                            <polygon id="Rectangle-6-Copy-3" fill="#FFA6B0" points="14.4444444 28 14.4444444 14.6153846 0 7.92307692 0 21.3076923"></polygon>
                        </g>
                        <g id="Group" transform="translate(20.000000, 28.000000)" fill-rule="nonzero">
                            <g id="3d-box-corner" transform="translate(0.903226, 0.894737)">
                                <polyline id="Path-23" stroke="#FFCBFE" stroke-width="0.923399884" stroke-linecap="round" stroke-linejoin="round" points="1 3.8 3.61904762 1.8 5.19047619 5 8.85714286 1.8 9.38095238 3 12 1"></polyline>
                                <circle id="Oval" stroke="#FB6D6D" stroke-width="0.5" fill="#FB6D6D" cx="0.5" cy="4.5" r="1"></circle>
                                <circle id="Oval" stroke="#FB6D6D" stroke-width="0.5" fill="#FB6D6D" cx="12.5" cy="0.5" r="1"></circle>
                            </g>
                        </g>
                    </g>
                </g>
            </g>
        </g>
    </g>
</svg>