<?xml version="1.0" encoding="UTF-8"?>
<svg width="60px" height="60px" viewBox="0 0 60 60" version="1.1" xmlns="http://www.w3.org/2000/svg" xmlns:xlink="http://www.w3.org/1999/xlink">
    <!-- Generator: Sketch 52.2 (67145) - http://www.bohemiancoding.com/sketch -->
    <title>tableauDeBord</title>
    <desc>Created with Sketch.</desc>
    <defs>
        <path d="M0,30 C0,46.568 13.432,60 30,60 C46.568,60 60,46.568 60,30 C60,13.432 46.568,0 30,0 C13.432,0 0,13.432 0,30 Z" id="path-1"></path>
        <path d="M0,8.85654545 C0,9.85754545 0.109565217,10.8774545 0.316521739,11.8985455 L23.7233043,22.6389091 C24.1286957,21.528 24.3478261,20.2516364 24.3478261,18.8310909 C24.3478261,11.7590909 19.6657391,4.02290909 12.173913,1.03645455 C10.4026087,0.329727273 8.79078261,0 7.35791304,0 C2.7306087,0 0,3.45327273 0,8.85654545 Z" id="path-3"></path>
        <path d="M0,8.85536364 C0,9.85754545 0.109565217,10.8774545 0.315304348,11.8985455 L23.722087,22.6389091 C24.1274783,21.528 24.3478261,20.2516364 24.3478261,18.8299091 C24.3478261,11.7579091 19.6657391,4.02409091 12.173913,1.03645455 C10.4038261,0.330909091 8.78956522,0 7.35791304,0 C2.7306087,0 0,3.45445455 0,8.85536364 Z" id="path-5"></path>
    </defs>
    <g id="Icons" stroke="none" stroke-width="1" fill="none" fill-rule="evenodd">
        <g id="Artboard" transform="translate(-818.000000, -2771.000000)">
            <g id="2" transform="translate(773.000000, 2726.000000)">
                <g id="picto">
                    <g id="tableauDeBord" transform="translate(45.000000, 45.000000)">
                        <g id="Group-3">
                            <mask id="mask-2" fill="white">
                                <use xlink:href="#path-1"></use>
                            </mask>
                            <g id="Clip-2"></g>
                            <polygon id="Fill-1" fill="#FB6D6D" opacity="0.2" mask="url(#mask-2)" points="-5 65 65 65 65 -5 -5 -5"></polygon>
                        </g>
                        <g id="Group-8" transform="translate(15.000000, 18.000000)">
                            <g id="Group-6" transform="translate(3.652174, 0.000000)">
                                <mask id="mask-4" fill="white">
                                    <use xlink:href="#path-3"></use>
                                </mask>
                                <g id="Clip-5"></g>
                                <polygon id="Fill-4" fill="#FB6D6D" mask="url(#mask-4)" points="-6.08695652 28.5468182 30.4347826 28.5468182 30.4347826 -5.90909091 -6.08695652 -5.90909091"></polygon>
                            </g>
                            <g id="Group-9" transform="translate(0.000000, 2.363636)">
                                <mask id="mask-6" fill="white">
                                    <use xlink:href="#path-5"></use>
                                </mask>
                                <g id="Clip-8"></g>
                                <polygon id="Fill-7" fill="#FFA6B0" mask="url(#mask-6)" points="-6.08695652 28.5468182 30.4347826 28.5468182 30.4347826 -5.90909091 -6.08695652 -5.90909091"></polygon>
                            </g>
                            <g id="Group-28" transform="translate(1.217391, 0.000000)">
                                <path d="M22.5050609,25.0017182 L26.1572348,22.6380818 L23.0869739,20.0581727 C23.0869739,20.0581727 23.3000174,22.5057182 22.5050609,25.0017182" id="Fill-10" fill="#FB6D6D"></path>
                                <path d="M2.41457391,3.30424545 L5.86831304,1.06942727 C5.86831304,1.06942727 7.98292174,-0.569754545 11.8116174,0.216154545 C15.6390957,1.00206364 18.2150957,2.93197273 18.9029217,3.45551818 C19.5895304,3.97906364 21.1538783,5.30506364 22.5051826,7.05415455 L18.6509217,9.14360909 C18.6509217,9.14360909 15.7754435,5.23651818 10.9570087,3.39997273 C6.13857391,1.56342727 3.5637913,2.69560909 2.41457391,3.30424545" id="Fill-12" fill="#FFCBFE"></path>
                                <path d="M1.57883478,12.5890818 C1.57883478,12.9672636 1.29761739,13.2733545 0.947008696,13.2733545 C0.598834783,13.2733545 0.317617391,12.9672636 0.317617391,12.5890818 C0.317617391,12.2109 0.598834783,11.9048091 0.947008696,11.9048091 C1.29761739,11.9048091 1.57883478,12.2109 1.57883478,12.5890818" id="Fill-14" fill="#FFCBFE"></path>
                                <path d="M3.08146087,6.83350909 C3.08146087,7.21169091 2.79902609,7.51778182 2.44963478,7.51778182 C2.10146087,7.51778182 1.82024348,7.21169091 1.82024348,6.83350909 C1.82024348,6.45532727 2.10146087,6.14923636 2.44963478,6.14923636 C2.79902609,6.14923636 3.08146087,6.45532727 3.08146087,6.83350909" id="Fill-16" fill="#FFCBFE"></path>
                                <path d="M10.5344522,5.9657 C10.5344522,6.3427 10.2520174,6.64997273 9.90262609,6.64997273 C9.55445217,6.64997273 9.27323478,6.3427 9.27323478,5.9657 C9.27323478,5.58751818 9.55445217,5.28142727 9.90262609,5.28142727 C10.2520174,5.28142727 10.5344522,5.58751818 10.5344522,5.9657" id="Fill-18" fill="#FFCBFE"></path>
                                <path d="M17.5785217,11.9578727 C17.5785217,12.3360545 17.2973043,12.6433273 16.9466957,12.6433273 C16.5985217,12.6433273 16.3173043,12.3360545 16.3173043,11.9578727 C16.3173043,11.5808727 16.5985217,11.2736 16.9466957,11.2736 C17.2973043,11.2736 17.5785217,11.5808727 17.5785217,11.9578727" id="Fill-20" fill="#FFCBFE"></path>
                                <path d="M20.3616,20.9184182 C20.3616,21.2966 20.0791652,21.6026909 19.7297739,21.6026909 C19.3816,21.6026909 19.0991652,21.2966 19.0991652,20.9184182 C19.0991652,20.5414182 19.3816,20.2341455 19.7297739,20.2341455 C20.0791652,20.2341455 20.3616,20.5414182 20.3616,20.9184182" id="Fill-22" fill="#FFCBFE"></path>
                                <path d="M8.54669565,7.70025455 L9.21504348,7.20152727 C9.21504348,7.20152727 9.60826087,7.18025455 9.7726087,7.59389091 C9.93695652,8.00870909 11.4124348,13.1342545 11.4124348,13.1342545 C11.4124348,13.1342545 12.6590435,13.7712545 12.2646087,15.6503455 L10.5736522,17.0058909 L8.54669565,7.70025455 Z" id="Fill-24" fill="#FB6D6D"></path>
                                <path d="M10.702087,13.7813 C10.3758261,12.4257545 9.38365217,8.3343 9.15965217,7.89939091 C8.89182609,7.37939091 8.43165217,7.67720909 8.35495652,7.97384545 C8.29286957,8.2173 8.15286957,12.3997545 8.10417391,13.9290273 C7.74991304,14.2906636 7.53078261,14.7905727 7.53078261,15.3413 C7.53078261,16.4451182 8.40730435,17.3409364 9.49078261,17.3409364 C10.5730435,17.3409364 11.4495652,16.4451182 11.4495652,15.3413 C11.4495652,14.7066636 11.1537391,14.1476636 10.702087,13.7813" id="Fill-26" fill="#FFCBFE"></path>
                            </g>
                        </g>
                    </g>
                </g>
            </g>
        </g>
    </g>
</svg>