<?xml version="1.0" encoding="UTF-8"?>
<svg width="31px" height="31px" viewBox="0 0 31 31" version="1.1" xmlns="http://www.w3.org/2000/svg" xmlns:xlink="http://www.w3.org/1999/xlink">
    <!-- Generator: Sketch 52.4 (67378) - http://www.bohemiancoding.com/sketch -->
    <title>fonds-color</title>
    <desc>Created with Sketch.</desc>
    <g id="Design" stroke="none" stroke-width="1" fill="none" fill-rule="evenodd" stroke-linecap="round" stroke-linejoin="round">
        <g id="3-A-Domaine-Production" transform="translate(-803.000000, -3545.000000)" stroke-width="1.92">
            <g id="fonds-color" transform="translate(804.000000, 3546.000000)">
                <ellipse id="Oval" stroke="#354273" cx="8.15625" cy="4.53125" rx="7.25" ry="3.625"></ellipse>
                <path d="M15.40625,8.15625 C15.40625,10.1584583 12.1606667,11.78125 8.15625,11.78125 C4.15183333,11.78125 0.90625,10.1584583 0.90625,8.15625" id="Path" stroke="#354273"></path>
                <path d="M15.40625,11.78125 L15.40625,4.53125" id="Path" stroke="#354273"></path>
                <path d="M0.90625,4.53125 L0.90625,22.65625 C0.90625,24.6584583 4.15183333,26.28125 8.15625,26.28125 C9.06923585,26.2826807 9.98005705,26.1924082 10.875,26.0117917" id="Path" stroke="#354273"></path>
                <path d="M0.90625,19.03125 C0.90625,21.0334583 4.15183333,22.65625 8.15625,22.65625 C9.06923585,22.6576807 9.98005705,22.5674082 10.875,22.3867917" id="Path" stroke="#354273"></path>
                <path d="M0.90625,15.40625 C0.90625,17.4084583 4.15183333,19.03125 8.15625,19.03125 C9.06923585,19.0326807 9.98005705,18.9424082 10.875,18.7617917" id="Path" stroke="#354273"></path>
                <path d="M0.90625,11.78125 C0.90625,13.7834583 4.15183333,15.40625 8.15625,15.40625 C9.06923585,15.4076807 9.98005705,15.3174082 10.875,15.1367917" id="Path" stroke="#354273"></path>
                <ellipse id="Oval" stroke="#FB6D6D" cx="20.84375" cy="17.21875" rx="7.25" ry="3.625"></ellipse>
                <path d="M13.59375,17.21875 L13.59375,24.46875 C13.59375,26.4709583 16.8393333,28.09375 20.84375,28.09375 C24.8481667,28.09375 28.09375,26.4709583 28.09375,24.46875 L28.09375,17.21875" id="Path" stroke="#FB6D6D"></path>
                <path d="M28.09375,20.84375 C28.09375,22.8459583 24.8481667,24.46875 20.84375,24.46875 C16.8393333,24.46875 13.59375,22.8459583 13.59375,20.84375" id="Path" stroke="#FB6D6D"></path>
            </g>
        </g>
    </g>
</svg>