<?xml version="1.0" encoding="UTF-8"?>
<svg width="31px" height="26px" viewBox="0 0 31 26" version="1.1" xmlns="http://www.w3.org/2000/svg" xmlns:xlink="http://www.w3.org/1999/xlink">
    <!-- Generator: Sketch 52.4 (67378) - http://www.bohemiancoding.com/sketch -->
    <title>rendement-color</title>
    <desc>Created with Sketch.</desc>
    <g id="Design" stroke="none" stroke-width="1" fill="none" fill-rule="evenodd" stroke-linecap="round" stroke-linejoin="round">
        <g id="3-A-Domaine-Production" transform="translate(-414.000000, -3618.000000)" stroke-width="1.92">
            <g id="Section-3" transform="translate(0.000000, 2826.000000)">
                <g id="rendement-color" transform="translate(415.000000, 793.000000)">
                    <path d="M14.5091745,11.9254658 L3.04099273,11.9254658 C1.77425234,11.9254658 0.747356364,12.9265683 0.747356364,14.1614907 L0.747356364,20.8695652 C0.747356364,22.1044876 1.77425234,23.1055901 3.04099273,23.1055901 L12.2155382,23.1055901 C13.4822786,23.1055901 14.5091745,22.1044876 14.5091745,20.8695652 L14.5091745,11.9254658 Z" id="Path" stroke="#354273"></path>
                    <path d="M25.9773564,11.9254658 L14.5091745,11.9254658 L14.5091745,20.8695652 C14.5091745,22.1044876 15.5360705,23.1055901 16.8028109,23.1055901 L25.9773564,23.1055901 C27.2440967,23.1055901 28.2709927,22.1044876 28.2709927,20.8695652 L28.2709927,14.1614907 C28.2709927,12.9265683 27.2440967,11.9254658 25.9773564,11.9254658 Z" id="Path" stroke="#FB6D6D"></path>
                    <path d="M7.62826545,11.9254658 L7.62826545,16.3975155" id="Path" stroke="#354273"></path>
                    <path d="M21.3900836,11.9254658 L21.3900836,16.3975155" id="Path" stroke="#FB6D6D"></path>
                    <path d="M19.0964473,0.745341615 L9.92190182,0.745341615 C8.65516143,0.745341615 7.62826545,1.74644404 7.62826545,2.98136646 L7.62826545,11.9254658 L21.3900836,11.9254658 L21.3900836,2.98136646 C21.3900836,1.74644404 20.3631877,0.745341615 19.0964473,0.745341615 Z" id="Path" stroke="#354273"></path>
                    <path d="M14.5091745,0.745341615 L14.5091745,5.2173913" id="Path" stroke="#354273"></path>
                </g>
            </g>
        </g>
    </g>
</svg>