<?xml version="1.0" encoding="UTF-8"?>
<svg width="31px" height="31px" viewBox="0 0 31 31" version="1.1" xmlns="http://www.w3.org/2000/svg" xmlns:xlink="http://www.w3.org/1999/xlink">
    <!-- Generator: Sketch 52.4 (67378) - http://www.bohemiancoding.com/sketch -->
    <title>billet-color</title>
    <desc>Created with Sketch.</desc>
    <g id="Design" stroke="none" stroke-width="1" fill="none" fill-rule="evenodd" stroke-linecap="round" stroke-linejoin="round">
        <g id="3-B-Domaine-Maintenance" transform="translate(-862.000000, -3732.000000)" stroke-width="1.92">
            <g id="billet-color" transform="translate(863.000000, 3733.000000)">
                <ellipse id="Oval" stroke="#FB6D6D" cx="8.15625" cy="17.21875" rx="7.25" ry="3.625"></ellipse>
                <path d="M0.90625,17.21875 L0.90625,24.46875 C0.90625,26.4709583 4.15183333,28.09375 8.15625,28.09375 C12.1606667,28.09375 15.40625,26.4709583 15.40625,24.46875 L15.40625,17.21875" id="Path" stroke="#FB6D6D"></path>
                <path d="M15.40625,20.84375 C15.40625,22.8459583 12.1606667,24.46875 8.15625,24.46875 C4.15183333,24.46875 0.90625,22.8459583 0.90625,20.84375" id="Path" stroke="#FB6D6D"></path>
                <path d="M19.03125,19.03125 L26.28125,19.03125 C27.2822661,19.03125 28.09375,18.2197661 28.09375,17.21875 L28.09375,2.71875 C28.09375,1.71773389 27.2822661,0.90625 26.28125,0.90625 L2.71875,0.90625 C1.71773389,0.90625 0.90625,1.71773389 0.90625,2.71875 L0.90625,11.7897083" id="Path" stroke="#38467A"></path>
                <path d="M10.875,9.96875 C10.875181,8.29884152 12.0161174,6.84511547 13.638142,6.44808817 C15.2601666,6.05106088 16.9435524,6.81347 17.7149983,8.29450531 C18.4864442,9.77554062 18.1463253,11.5919587 16.8912917,12.6935417" id="Path" stroke="#38467A"></path>
                <path d="M5.4375,4.984375 C5.68775403,4.984375 5.890625,5.18724597 5.890625,5.4375 C5.890625,5.68775403 5.68775403,5.890625 5.4375,5.890625 C5.18724597,5.890625 4.984375,5.68775403 4.984375,5.4375 C4.984375,5.18724597 5.18724597,4.984375 5.4375,4.984375" id="Path" stroke="#38467A"></path>
                <path d="M23.5625,14.046875 C23.812754,14.046875 24.015625,14.249746 24.015625,14.5 C24.015625,14.750254 23.812754,14.953125 23.5625,14.953125 C23.312246,14.953125 23.109375,14.750254 23.109375,14.5 C23.109375,14.249746 23.312246,14.046875 23.5625,14.046875" id="Path" stroke="#38467A"></path>
            </g>
        </g>
    </g>
</svg>