<svg width="34" height="30" xmlns="http://www.w3.org/2000/svg"><g stroke-width="1.4" fill="none" fill-rule="evenodd" stroke-linecap="round" stroke-linejoin="round"><path d="M30.2 28.2h1c1 0 1.9-.8 1.9-1.9V6" stroke="#00D1C1"/><path d="M26.4 25.3h.9c1 0 1.9-.8 1.9-1.9V3c0-1.2-1-2-2-2H3a2 2 0 0 0-2 2v20.3c0 1.1.8 2 2 2h.8M1 6.6h28.2" stroke="#38467A"/><ellipse stroke="#38467A" cx="15.1" cy="21.6" rx="7.5" ry="7.5"/><path d="M15 21.6l2.7-2.9M15 14v-3.7M13.2 10.3h3.7M19.9 15.7l1.7-1.6M9.8 15.7l-1.6-1.6" stroke="#38467A"/></g></svg>