<svg width="35" height="35" xmlns="http://www.w3.org/2000/svg"><g transform="translate(0 1)" stroke-width="1.6" fill="none" fill-rule="evenodd" stroke-linecap="round" stroke-linejoin="round"><path d="M5 32.6a4 4 0 0 1-4-4V12.8" stroke="#FB6D6D"/><rect stroke="#38467A" x="4.1" y="6.7" width="29.9" height="23.8" rx="4.1"/><path d="M22 .7h-6a2 2 0 0 0-2 2v4h10v-4c0-1-.9-2-2-2z" stroke="#38467A"/><ellipse stroke="#38467A" cx="19" cy="18.5" rx="2" ry="2"/><path d="M20.7 10.9l.6 1.9c.2.7 1 1 1.6.9l2-.4c.7-.2 1.5.1 1.9.8.4.7.3 1.5-.3 2l-1.3 1.5c-.5.6-.5 1.3 0 1.8l1.3 1.5c.6.6.7 1.4.3 2.1-.4.7-1.2 1-2 .8l-2-.4c-.6-.2-1.3.2-1.5.9l-.6 2a1.8 1.8 0 0 1-3.3 0l-.6-2c-.2-.7-1-1-1.6-1l-2 .5c-.7.2-1.5-.1-1.9-.8-.4-.7-.3-1.5.2-2l1.4-1.6c.5-.5.5-1.2 0-1.8l-1.4-1.4c-.5-.6-.6-1.4-.2-2.1.4-.7 1.2-1 2-.8l1.9.4c.7.2 1.4-.2 1.6-.9l.6-2a1.8 1.8 0 0 1 3.3 0z" stroke="#38467A"/></g></svg>