<svg width="18" height="14" xmlns="http://www.w3.org/2000/svg"><g stroke-width="1.1" fill="none" fill-rule="evenodd" stroke-linecap="round" stroke-linejoin="round"><path d="M9 1.4A8.5 8.5 0 0 0 .6 9.9v1.6c0 .6.5 1.1 1 1.1h14.7c.6 0 1.1-.5 1.1-1.1V9.9c0-4.7-3.7-8.5-8.4-8.5z" stroke="#38467A"/><path d="M6.8 12.6v-.5a2.2 2.2 0 1 1 4.5 0v.5M10.7 4.8L9 9.8" stroke="#38467A"/><path d="M3.7 9.3a.3.3 0 1 0 0 .5.3.3 0 0 0 0-.6M4.8 6.4a.3.3 0 1 0 0 .6.3.3 0 0 0 0-.6M14.3 9.3a.3.3 0 1 0 0 .5.3.3 0 0 0 0-.6M13.2 6.4a.3.3 0 1 0 0 .6.3.3 0 0 0 0-.6M7 4.2a.3.3 0 1 0 0 .6.3.3 0 0 0 0-.6" stroke="#FB6D6D"/></g></svg>