<svg width="60" height="60" viewBox="0 0 60 60" xmlns="http://www.w3.org/2000/svg">
  <g fill="none" fill-rule="evenodd">
    <circle fill="#1C95FF" fill-rule="nonzero" opacity=".2" cx="30" cy="30" r="30"/>
    <path d="M39.2 19.9L30 15.7a1 1 0 0 0-1.5 1v15a2 2 0 0 0 1.2 2l9.3 4.1a1 1 0 0 0 1.5-1v-15a2 2 0 0 0-1.3-2z" fill="#1C95FF"/>
    <path d="M34 23l-9.3-4.2a1 1 0 0 0-1.4 1v15a2 2 0 0 0 1.2 2l9.3 4.1a1 1 0 0 0 1.5-1V25a2 2 0 0 0-1.3-2z" fill="#1CCAFF"/>
    <path d="M28.8 27l-9.3-4a1 1 0 0 0-1.5.9V39a2 2 0 0 0 1.3 1.9l9.3 4.2a1 1 0 0 0 1.4-1V29a2 2 0 0 0-1.2-2z" fill="#1CEEFF"/>
  </g>
</svg>
