<?xml version="1.0" encoding="UTF-8"?>
<svg width="60px" height="60px" viewBox="0 0 60 60" version="1.1" xmlns="http://www.w3.org/2000/svg" xmlns:xlink="http://www.w3.org/1999/xlink">
    <!-- Generator: sketchtool 52.2 (67145) - http://www.bohemiancoding.com/sketch -->
    <title>CB3AB7EF-276B-444F-A996-321B7DAC38E7</title>
    <desc>Created with sketchtool.</desc>
    <g id="Design" stroke="none" stroke-width="1" fill="none" fill-rule="evenodd">
        <g id="4a1-Tarifs" transform="translate(-283.000000, -467.000000)">
            <g id="section-1" transform="translate(120.000000, 420.000000)">
                <g id="#2" transform="translate(55.000000, 47.000000)">
                    <g id="personnalisation" transform="translate(108.000000, 0.000000)">
                        <circle id="Oval-4" fill="#FFB400" fill-rule="nonzero" opacity="0.2" cx="30" cy="30" r="30"></circle>
                        <g id="curseurs" transform="translate(15.000000, 10.000000)">
                            <g id="Group-3">
                                <g id="1">
                                    <path d="M5.27082485,1.95121951 C5.27082485,1.05319553 5.76008525,0.622394669 6.73860604,0.658816933 C7.71712684,1.06160596 8.20638723,1.71201246 8.20638723,2.61003645 L8.20638723,29.2682927 C8.20638723,30.6153287 7.71428571,31.2195122 6.73860604,31.2195122 C5.76292637,31.2195122 5.27082485,30.6153287 5.27082485,29.2682927 L5.27082485,1.95121951 Z" id="Path-6" fill="#FFB400" fill-rule="nonzero"></path>
                                    <path d="M4.30653914,2.92682927 C4.30653914,2.02880528 4.79579953,1.59800443 5.77432033,1.63442669 C6.75284112,2.03721571 7.24210152,2.68762222 7.24210152,3.5856462 L7.24210152,30.2439024 C7.24210152,31.5909384 6.75,32.195122 5.77432033,32.195122 C4.79864066,32.195122 4.30653914,31.5909384 4.30653914,30.2439024 L4.30653914,2.92682927 Z" id="Path-6" fill="#FFE300" fill-rule="nonzero"></path>
                                    <polygon id="Path-7" fill="#FFF0CC" fill-rule="nonzero" points="-1.99840144e-13 25.5229264 7.2565398 29.0756028 9.64285714 27.4265372 9.64285714 14.6341463 7.25111199 16.3510594 -1.99840144e-13 12.6829268"></polygon>
                                    <path d="M2.91581633,17.0304343 L2.91581633,22.426772 C2.91581633,22.7950705 3.12397439,23.1317353 3.45345274,23.2963191 L7.82322822,25.4791465 C8.30346587,25.7190389 8.8872466,25.5242006 9.127139,25.043963 C9.19451645,24.9090809 9.22959184,24.7603737 9.22959184,24.6095994 L9.22959184,19.8142441 C9.22959184,19.0776471 8.81327571,18.4043175 8.15431901,18.0751498 L4.32217994,16.1608871 C3.8419423,15.9209947 3.25816156,16.115833 3.01826917,16.5960707 C2.95089171,16.7309528 2.91581633,16.8796599 2.91581633,17.0304343 Z" id="Shape" fill="#FFB400"></path>
                                    <path d="M1.95153061,18.006044 L1.95153061,23.4023817 C1.95153061,23.7706803 2.15968867,24.1073451 2.48916702,24.2719289 L6.85894251,26.4547563 C7.33918015,26.6946487 7.92296089,26.4998104 8.16285328,26.0195727 C8.23023074,25.8846906 8.26530612,25.7359835 8.26530612,25.5852091 L8.26530612,20.7898539 C8.26530612,20.0532568 7.84899,19.3799272 7.1900333,19.0507596 L3.35789423,17.1364968 C2.87765658,16.8966045 2.29387584,17.0914428 2.05398345,17.5716804 C1.986606,17.7065625 1.95153061,17.8552697 1.95153061,18.006044 Z" id="Shape" fill="#FFE300"></path>
                                    <g id="box" transform="translate(2.700000, 16.363636)"></g>
                                </g>
                                <g id="2" transform="translate(9.000000, 4.545455)">
                                    <path d="M3.98511057,1.30820399 C3.98511057,0.410180008 4.47437096,-0.0206208521 5.45289176,0.0158014119 C6.43141255,0.418590437 6.92067295,1.06899694 6.92067295,1.96702092 L6.92067295,28.6252772 C6.92067295,29.9723131 6.42857143,30.5764967 5.45289176,30.5764967 C4.47721209,30.5764967 3.98511057,29.9723131 3.98511057,28.6252772 L3.98511057,1.30820399 Z" id="Path-6" fill="#FFB400" fill-rule="nonzero"></path>
                                    <path d="M3.02082485,2.28381375 C3.02082485,1.38578976 3.51008525,0.954988904 4.48860604,0.991411168 C5.46712684,1.39420019 5.95638723,2.0446067 5.95638723,2.94263068 L5.95638723,29.6008869 C5.95638723,30.9479229 5.46428571,31.5521064 4.48860604,31.5521064 C3.51292637,31.5521064 3.02082485,30.9479229 3.02082485,29.6008869 L3.02082485,2.28381375 Z" id="Path-6" fill="#FFE300" fill-rule="nonzero"></path>
                                    <polygon id="Path-7" fill="#FFF0CC" fill-rule="nonzero" points="0.642857143 16.0994231 6.49902153 19.1792277 9.32142857 17.0274241 9.32142857 4.23503326 6.49902153 6.46577332 0.642857143 3.2594235"></polygon>
                                    <path d="M2.57142857,7.16441453 L2.57142857,12.5607522 C2.57142857,12.9290508 2.77958663,13.2657156 3.10906498,13.4302994 L7.47884047,15.6131268 C7.95907811,15.8530192 8.54285885,15.6581809 8.78275124,15.1779432 C8.8501287,15.0430611 8.88520408,14.894354 8.88520408,14.7435796 L8.88520408,9.94822441 C8.88520408,9.21162731 8.46888796,8.53829772 7.80993126,8.20913006 L3.97779219,6.29486735 C3.49755454,6.05497496 2.9137738,6.24981328 2.67388141,6.73005093 C2.60650396,6.86493303 2.57142857,7.01364018 2.57142857,7.16441453 Z" id="Shape" fill="#FFFCCF"></path>
                                    <path d="M1.60714286,8.14002428 L1.60714286,13.536362 C1.60714286,13.9046605 1.81530092,14.2413253 2.14477927,14.4059091 L6.51455475,16.5887366 C6.9947924,16.828629 7.57857314,16.6337906 7.81846553,16.153553 C7.88584298,16.0186709 7.92091837,15.8699637 7.92091837,15.7191894 L7.92091837,10.9238342 C7.92091837,10.1872371 7.50460225,9.51390747 6.84564554,9.18473981 L3.01350647,7.27047711 C2.53326883,7.03058472 1.94948809,7.22542304 1.7095957,7.70566068 C1.64221824,7.84054278 1.60714286,7.98924994 1.60714286,8.14002428 Z" id="Shape" fill="#FFB400"></path>
                                </g>
                                <g id="3" transform="translate(18.000000, 8.181818)">
                                    <path d="M3.66368199,1.57427938 C3.66368199,0.676255396 4.15294239,0.245454536 5.13146319,0.2818768 C6.10998398,0.684665825 6.59924438,1.33507233 6.59924438,2.23309631 L6.59924438,28.8913525 C6.59924438,30.2383885 6.10714286,30.8425721 5.13146319,30.8425721 C4.15578352,30.8425721 3.66368199,30.2383885 3.66368199,28.8913525 L3.66368199,1.57427938 Z" id="Path-6" fill="#FFB400" fill-rule="nonzero"></path>
                                    <path d="M2.69939628,2.54988914 C2.69939628,1.65186515 3.18865668,1.22106429 4.16717747,1.25748656 C5.14569827,1.66027558 5.63495866,2.31068208 5.63495866,3.20870607 L5.63495866,29.8669623 C5.63495866,31.2139983 5.14285714,31.8181818 4.16717747,31.8181818 C3.1914978,31.8181818 2.69939628,31.2139983 2.69939628,29.8669623 L2.69939628,2.54988914 Z" id="Path-6" fill="#FFE300" fill-rule="nonzero"></path>
                                    <polygon id="Path-7" fill="#FFF0CC" fill-rule="nonzero" points="0.321428571 26.1215961 5.72831633 28.8913525 9 27.0495971 9 14.2572062 5.72831633 16.2084257 0.321428571 13.2815965"></polygon>
                                    <path d="M2.25,17.1865875 L2.25,22.5829252 C2.25,22.9512237 2.45815806,23.2878885 2.78763641,23.4524723 L7.1574119,25.6352998 C7.63764954,25.8751922 8.22143028,25.6803538 8.46132267,25.2001162 C8.52870013,25.0652341 8.56377551,24.9165269 8.56377551,24.7657526 L8.56377551,19.9703974 C8.56377551,19.2338003 8.14745939,18.5604707 7.48850269,18.231303 L3.65636361,16.3170403 C3.17612597,16.0771479 2.59234523,16.2719862 2.35245284,16.7522239 C2.28507538,16.887106 2.25,17.0358131 2.25,17.1865875 Z" id="Shape" fill="#FFB400"></path>
                                    <path d="M1.28571429,18.1621972 L1.28571429,23.5585349 C1.28571429,23.9268335 1.49387235,24.2634983 1.8233507,24.4280821 L6.19312618,26.6109095 C6.67336383,26.8508019 7.25714456,26.6559636 7.49703696,26.1757259 C7.56441441,26.0408438 7.5994898,25.8921367 7.5994898,25.7413623 L7.5994898,20.9460071 C7.5994898,20.20941 7.18317367,19.5360804 6.52421697,19.2069128 L2.6920779,17.2926501 C2.21184026,17.0527577 1.62805952,17.247596 1.38816712,17.7278336 C1.32078967,17.8627157 1.28571429,18.0114229 1.28571429,18.1621972 Z" id="Shape" fill="#FFE300"></path>
                                </g>
                            </g>
                        </g>
                    </g>
                </g>
            </g>
        </g>
    </g>
</svg>