<?xml version="1.0" encoding="UTF-8"?>
<svg width="164px" height="15px" viewBox="0 0 164 15" version="1.1" xmlns="http://www.w3.org/2000/svg" xmlns:xlink="http://www.w3.org/1999/xlink">
    <!-- Generator: sketchtool 52.2 (67145) - http://www.bohemiancoding.com/sketch -->
    <title>18BC6CD8-69AE-499C-954E-4977C5AA3BD0@1x</title>
    <desc>Created with sketchtool.</desc>
    <g id="Design" stroke="none" stroke-width="1" fill="none" fill-rule="evenodd">
        <g id="1a-Home" transform="translate(-120.000000, -712.000000)" fill="#7A819A">
            <g id="Section-1" transform="translate(120.000000, 580.000000)">
                <path d="M80.6,140.5 L84.6,140.5 L82.5,136.6 L80.6,140.5 Z M86.1,143.2 L79.2,143.2 L77.8,146 L74.4,146 L81.3,133.3 L84.4,133.3 L92.2,146 L87.7,146 L86.1,143.2 Z M6.4,140.5 L10.5,140.5 L8.4,136.6 L6.4,140.5 Z M13.7,146 L12.1,143.2 L5,143.2 L3.5,146 L0,146 L7.1,133.3 L10.3,133.3 L18.3,146 L13.7,146 Z M34.3,139.1 C35.8,139.1 36.5,138.4 36.5,137.5 C36.5,136.6 35.9,136 34.3,136 L30.4,136 L30.4,139.1 L34.3,139.1 Z M42.4,146 L38.4,146 C37.5,146 36.9,145.7 36.5,145.3 L33,141.9 C33,141.8 32.9,141.8 32.8,141.8 L30.4,141.8 L30.4,146 L26.7,146 L26.7,133.3 L34.7,133.3 C38.9,133.3 40.6,135.2 40.6,137.2 C40.6,139.6 38.5,140.8 37.3,141.2 L42.4,146 Z M66.1,139.1 C67.6,139.1 68.3,138.4 68.3,137.5 C68.3,136.6 67.7,136 66.1,136 L62.2,136 L62.2,139.1 L66.1,139.1 Z M74.2,146 L70.2,146 C69.3,146 68.7,145.7 68.3,145.3 L64.8,141.9 C64.8,141.8 64.7,141.8 64.6,141.8 L62.2,141.8 L62.2,146 L58.5,146 L58.5,133.3 L66.5,133.3 C70.7,133.3 72.4,135.2 72.4,137.2 C72.4,139.6 70.3,140.8 69.1,141.2 L74.2,146 Z M126.6,133.3 L139.5,133.3 L139.5,136 L130.4,136 L130.4,138.2 L139.4,138.2 L139.4,140.9 L130.4,140.9 L130.4,143.2 L139.5,143.2 L139.5,145.9 L126.6,146 L126.6,133.3 Z M43.9,133.3 L56.3,133.3 L56.3,136 L47.6,136 L47.6,139.2 L56,139.2 L56,141.9 L47.5,141.9 L47.5,146 L43.9,146 L43.9,133.3 Z M124.3,137.4 C122.6,136.6 120.7,135.9 118.2,135.9 C115.2,135.9 113,137.4 113,139.6 C113,141.8 115.3,143.4 118.2,143.4 C120.6,143.4 122.5,142.8 124.4,141.7 L124.4,144.8 C122.7,145.6 120.5,146.2 118,146.2 C112.9,146.2 108.9,143.6 108.9,139.6 C108.9,135.6 113,133.1 118,133.1 C120.4,133.1 122.5,133.5 124.3,134.3 L124.3,137.4 Z M105,146 L96.1,138.5 L96.1,146 L93,146 L93,133.3 L95.7,133.3 L104.5,140.7 L104.5,133.3 L107.6,133.3 L107.6,146 L105,146 Z M23.2,146 L19.5,146 L19.5,133.3 L23.2,133.3 L23.2,146 Z M155,132.1 L155,132 L163.8,132 L156.2,142.9 C155.2,144.5 153.6,145.9 151.4,145.9 L143.2,145.9 L143.2,145.6 C145.1,145.5 146.6,144.1 147.6,142.7 L155,132.1 Z" id="Air-france"></path>
            </g>
        </g>
    </g>
</svg>