<?xml version="1.0" encoding="UTF-8"?>
<svg width="80px" height="27px" viewBox="0 0 80 27" version="1.1" xmlns="http://www.w3.org/2000/svg" xmlns:xlink="http://www.w3.org/1999/xlink">
    <!-- Generator: sketchtool 52.2 (67145) - http://www.bohemiancoding.com/sketch -->
    <title>65572719-E32A-46D6-9895-EB32ABE0558D@1x</title>
    <desc>Created with sketchtool.</desc>
    <defs>
        <linearGradient x1="49.9496416%" y1="100.00257%" x2="49.9496416%" y2="0.00257009346%" id="linearGradient-1">
            <stop stop-color="#7A819A" stop-opacity="0" offset="0%"></stop>
            <stop stop-color="#7A819A" offset="100%"></stop>
        </linearGradient>
    </defs>
    <g id="Design" stroke="none" stroke-width="1" fill="none" fill-rule="evenodd">
        <g id="1a-Home" transform="translate(-826.000000, -706.000000)">
            <g id="Section-1" transform="translate(120.000000, 580.000000)">
                <g id="engie" transform="translate(705.920000, 126.000000)">
                    <path d="M80,12.2285714 C69.5770609,4.64285714 55.4982079,0 40,0 C24.5017921,0 10.4229391,4.64285714 0,12.2285714 L80,12.2285714 Z" id="Shape" fill="url(#linearGradient-1)" fill-rule="nonzero"></path>
                    <path d="M34.1648746,14.4 C33.4193548,14.4 33.0322581,15 32.9318996,15.7428571 C32.8170609,16.5571429 32.3869534,19.3857143 32.3010753,20.1 C32.2437276,20.5285714 32.2150538,20.9857143 31.7992832,21.1714286 C31.3835125,21.3571429 30.8673835,21.0714286 30.437276,20.7 C30.0071685,20.3284286 23.5698925,14.8712857 23.5698925,14.8712857 C23.1971326,14.5427143 22.7383513,14.3998571 22.2940502,14.3998571 C21.3191398,14.3998571 20.3872401,14.9998571 20.3872401,16.4712857 L20.3872401,25.5714286 C20.3872401,26.2857143 20.8890323,26.7285714 21.4910394,26.7285714 C22.150681,26.7285714 22.5807885,26.2857143 22.681147,25.6571429 C22.681147,25.6571429 23.3835125,21.3144286 23.4696774,20.843 C23.5698925,20.2858571 23.6560573,19.843 24.2008602,19.6715714 C24.6883154,19.5142857 25.1614337,19.8 25.8496057,20.4144286 C26.5377778,21.0142857 32.3298925,26.2285714 32.3298925,26.2285714 C32.7743369,26.6001429 33.0897491,26.7571429 33.7205735,26.7571429 C34.2940502,26.7571429 35.3261649,26.5285714 35.3261649,24.7857143 L35.3261649,15.7142857 C35.3261649,14.8571429 34.8100358,14.4 34.1648746,14.4 Z M75.6129032,24.0857143 C70.5663082,25.1715714 64.7885305,24.0142857 64.7885305,20.4572857 C64.7885305,17.7715714 67.297491,16.6715714 69.2616487,16.5142857 C71.3261649,16.343 72.9462366,16.7857143 73.7777778,17.6428571 C74.2939068,18.1858571 74.1505376,18.9142857 73.1326165,18.9715714 C72.1863799,19.0285714 70.4229391,19.0857143 68.9605735,19.1428571 C68.1288889,19.1714286 67.6845878,19.6144286 67.6845878,20.2142857 C67.6845878,20.6858571 68.0430108,21.2285714 69.0035842,21.2285714 C70.3799283,21.2285714 73.8636559,21.2572857 75.5985663,21.2572857 C76.7455197,21.2572857 77.3045161,20.6287143 77.3045161,19.3142857 C77.3045161,17.2428571 75.4121864,14.0857143 69.8924731,14.0857143 C64.8888889,14.0857143 61.2616487,16.5714286 61.2616487,20.6287143 C61.2616487,26.3858571 69.7776344,28.143 76,26.0142857 C76.5878136,25.8144286 77.1326165,25.3858571 76.9605735,24.7285714 C76.802724,24.1571429 76.3297491,23.9428571 75.6129032,24.0857143 Z M17.046595,24.0857143 C12,25.1714286 6.22222222,24.0142857 6.22222222,20.4571429 C6.22222222,17.7714286 8.7311828,16.6714286 10.6953405,16.5141429 C12.7598566,16.3428571 14.3799283,16.7855714 15.2114695,17.6427143 C15.7277419,18.1857143 15.5843728,18.9141429 14.5663082,18.9714286 C13.6200717,19.0285714 11.8566308,19.0857143 10.3942652,19.1428571 C9.56272401,19.1714286 9.11827957,19.6144286 9.11827957,20.2142857 C9.11827957,20.6858571 9.47670251,21.2285714 10.437276,21.2285714 C11.8136201,21.2285714 15.297491,21.2572857 17.0322581,21.2572857 C18.1792115,21.2572857 18.7383513,20.6287143 18.7383513,19.3142857 C18.7383513,17.2428571 16.8458781,14.0855714 11.3261649,14.0855714 C6.32258065,14.0855714 2.6953405,16.5712857 2.6953405,20.6285714 C2.6953405,26.3857143 11.2114695,28.1428571 17.4336918,26.0141429 C18.0216487,25.8142857 18.5663082,25.3857143 18.3942652,24.7284286 C18.2508961,24.1571429 17.7634409,23.9428571 17.046595,24.0857143 Z M56.1433692,18.5571429 C56.2580645,21.7 56.5448029,24.2998571 56.6308244,25.2142857 C56.7310394,26.3857143 57.3476703,26.7285714 57.9641577,26.7285714 C58.5519713,26.7285714 59.1827957,26.4285714 59.2831541,25.2285714 C59.3691756,24.2285714 59.6701075,21.1142857 59.8134767,18.0428571 C59.827957,17.8857143 59.7132616,17.8142857 59.584086,17.843 L56.3009319,18.3714286 C56.2093818,18.3856979 56.1422559,18.4648172 56.1433692,18.5571429 Z M57.9784946,14.1 C56.4731183,14.1 56.0286738,15.2714286 56.0430108,16 C56.0430108,16.1285714 56.057491,16.5 56.0860215,16.9715714 C56.0860215,17.0714286 56.1863799,17.1714286 56.3155556,17.1571429 L59.7419355,16.6001429 C59.8567742,16.5715714 59.8997849,16.5001429 59.9139785,16.4144286 C59.9283154,16.2572857 59.9283154,16.0857143 59.9283154,16.0142857 C59.9426523,15.3142857 59.4982079,14.1 57.9784946,14.1 Z M52.9462366,19.1144286 C51.7992832,19.1144286 48.2722581,19.1428571 46.0215054,19.1428571 C44.9317563,19.1428571 44.6594982,19.7285714 44.6594982,20.2142857 C44.6594982,20.6428571 44.9462366,21.1858571 45.9783513,21.2428571 C47.5410753,21.3287143 49.5195699,21.4142857 50.4227957,21.4571429 C51.655914,21.5141429 51.6701075,22.157 51.2544803,22.6858571 C50.4227957,23.7715714 48.3870968,24.4858571 46.2795699,24.4858571 C43.5268817,24.4858571 40.4874552,22.9287143 40.4874552,20.4428571 C40.4874552,18.1144286 43.0825806,15.5572857 50.7956989,16.6428571 C51.4695341,16.7428571 52.1432258,16.6144286 52.3154122,15.9857143 C52.4874552,15.3142857 52.0573477,14.9 51.1829391,14.657 C49.4338351,14.2 47.8422939,14.0855714 46.322724,14.0855714 C41.1327599,14.0855714 36.9607168,16.5571429 36.9607168,20.5428571 C36.9607168,24.7998571 41.104086,26.8855714 46.2797133,26.8855714 C52.057491,26.8855714 54.8673835,23.7571429 54.8673835,21.014 C54.8530466,19.6428571 54.1362007,19.1142857 52.9462366,19.1144286 Z" id="Shape" fill="#7A819A"></path>
                </g>
            </g>
        </g>
    </g>
</svg>