<?xml version="1.0" encoding="UTF-8"?>
<svg width="79px" height="31px" viewBox="0 0 79 31" version="1.1" xmlns="http://www.w3.org/2000/svg" xmlns:xlink="http://www.w3.org/1999/xlink">
    <!-- Generator: sketchtool 52.2 (67145) - http://www.bohemiancoding.com/sketch -->
    <title>3733656C-9E45-4206-A363-2276BA35E574@1x</title>
    <desc>Created with sketchtool.</desc>
    <g id="Design" stroke="none" stroke-width="1" fill="none" fill-rule="evenodd">
        <g id="1a-Home" transform="translate(-423.000000, -704.000000)" fill="#7A819A">
            <g id="Section-1" transform="translate(120.000000, 580.000000)">
                <path d="M331.773945,144.367736 C331.773945,145.919995 330.808779,146.980115 329.131934,146.720031 C327.815723,146.51724 327.299161,145.206516 327.299161,143.99183 L327.299161,136.338524 L324.364473,136.338524 L324.364473,143.548327 C324.364473,145.784801 324.491216,148.570294 327.650206,148.618519 C329.044381,148.637891 330.516519,147.847336 331.676803,147.37498 L331.628024,148.290838 C331.618435,148.367915 331.686809,148.493217 331.949885,148.41614 L335.128053,147.46195 L335.128053,136.338524 L331.774362,136.338524 L331.774362,144.367736 L331.773945,144.367736 Z M312.829593,124.703586 L303.84,148.386875 L305.566042,148.386875 L309.651008,137.504573 L316.446777,137.504573 L320.200292,148.386875 L323.553983,148.386875 L315.705913,124 L312.829593,124.703586 Z M310.021648,136.078028 L313.209823,127.200556 L315.998172,136.049176 L310.021648,136.078028 Z M348.105053,142.266456 L348.105053,142.198859 C348.114642,142.102822 348.105053,142.015853 348.105053,141.929295 C348.026673,138.854454 345.618969,135.634938 342.469568,136.377269 C341.796662,136.531423 341.094988,136.868584 340.373303,137.427908 C339.944294,137.717257 339.944294,138.063898 339.944294,137.66862 L339.944294,124.164047 L336.628959,124.973975 L336.61937,148.464365 L339.729581,148.454885 L339.719992,147.34654 C339.82714,147.375393 340.090632,147.674221 340.168596,147.732338 C340.958239,148.339887 341.738293,148.657676 342.469568,148.754125 C345.57019,149.148579 348.017083,145.524305 348.105053,142.266456 Z M342.079749,147.249679 C340.432088,147.259159 339.876336,145.360671 339.847152,143.97287 C339.807961,141.97752 339.359357,138.07379 342.03097,138.063898 C342.186897,138.063898 342.333236,138.073378 342.469568,138.09275 C344.809314,138.391579 345.140764,141.167592 345.140764,143.076385 C345.140764,144.830611 344.595018,146.980115 342.469568,147.230718 C342.342825,147.240199 342.216082,147.249679 342.079749,147.249679 Z M355.105529,147.943785 L357.875117,148.801526 C358.479232,148.888083 358.381673,148.483737 358.381673,148.02045 L358.391262,141.735984 C358.391262,140.704305 358.576791,139.586068 358.138193,138.622398 C357.192622,137.022326 354.959191,136.588303 353.175197,136.685165 C353.019686,136.694645 352.872931,136.704125 352.727427,136.723498 C351.459578,136.925877 349.919065,137.29189 349.256165,138.516468 C348.778376,139.70189 350.250515,139.798752 351.010974,139.355249 C351.518364,139.046528 351.761844,138.593546 352.181264,138.198268 C352.467547,137.966638 352.810509,137.813669 353.175614,137.754765 C353.722194,137.658315 354.296707,137.774137 354.716127,138.169415 C355.388616,138.911746 355.174737,139.943014 355.174737,140.848979 C355.125958,141.379039 353.839348,141.61975 353.175614,141.764837 C353.093426,141.779556 353.012138,141.798821 352.932134,141.822542 C351.869409,142.160115 350.748315,142.535608 349.82234,143.16253 C348.944727,143.692589 348.233047,144.569703 348.135071,145.620754 C348.115476,145.736164 348.115476,145.842094 348.105887,145.957915 L348.105887,146.256744 C348.135071,147.114485 348.456932,147.779738 349.236986,148.367503 C350.44605,149.099942 351.85982,149.148579 353.175614,148.772261 C353.601928,148.644495 354.013685,148.47335 354.404272,148.261574 L355.105529,147.943785 Z M351.995735,147.211346 C350.776666,146.516828 351.390787,144.733749 352.248804,143.876008 C352.443505,143.693002 352.784545,143.442398 353.17478,143.201274 C353.799324,142.815476 354.569789,142.458943 355.027148,142.458943 L355.007553,146.073737 C354.373837,146.642542 353.740538,147.076152 353.17478,147.269051 C352.736599,147.404245 352.336774,147.404245 351.995735,147.211346 Z M367.44923,137.890371 C366.649581,137.235009 365.693587,136.916809 364.709243,136.859104 C362.710953,136.743282 360.633866,137.755177 359.649105,139.384514 C358.49841,141.428088 358.49841,143.838088 359.366434,145.987592 C360.029334,147.336648 361.209213,148.493629 362.681352,148.93672 C363.334246,149.110246 364.036336,149.139099 364.708826,149.023689 C365.547665,148.879015 366.347315,148.52207 366.99062,147.963157 L367.60474,147.548919 L367.61433,148.917348 L370.413102,148.261986 L370.413102,124.539952 L367.487169,125.522995 L367.44923,137.890371 Z M364.904777,147.452058 L364.709243,147.452058 C361.920893,147.297903 361.784144,142.874006 362.301539,140.945841 C362.652585,139.66397 363.364264,138.275757 364.709243,138.218052 C365.001502,138.208572 365.323363,138.256797 365.673992,138.382099 C367.27329,138.960383 367.351254,140.878656 367.351254,142.315093 C367.36126,144.08828 367.410457,147.413725 364.904777,147.452058 Z M379.256774,137.205745 C378.479944,136.831862 377.624047,136.646746 376.760267,136.665793 C376.312497,136.665793 375.853887,136.732978 375.414872,136.858692 C374.537258,137.099403 373.562503,137.706952 372.957972,138.381686 C372.089948,139.335877 371.378268,140.550151 371.163972,141.832434 C371.036812,142.603617 370.978444,143.249499 371.076003,144.020683 C371.241102,145.47608 371.778093,146.748471 372.742842,147.847336 C373.776383,149.004317 375.268116,149.447407 376.75985,149.350958 C377.286835,149.312213 377.823409,149.216176 378.329965,149.042649 C379.821698,148.560402 381.050357,147.249266 381.537317,145.784801 C381.596103,145.611274 381.556912,145.534197 381.391396,145.456708 C380.689305,145.109655 380.670127,145.611274 380.299487,146.093109 C379.568212,147.0473 378.690599,147.625584 377.442762,147.558399 C377.212654,147.551612 376.983777,147.522482 376.759433,147.47143 C376.370031,147.3655 376.038164,147.172601 375.687119,146.835441 C374.92666,146.083629 373.464111,143.693002 374.536425,141.640359 L381.84,141.620575 L381.84,141.360491 C381.781631,139.731155 380.592163,137.861107 379.256774,137.205745 Z M378.671004,140.280587 L374.84953,140.261214 C374.790745,138.921639 375.667941,138.044113 376.575155,137.995889 C376.64353,137.986409 376.701482,137.986409 376.75985,137.986409 C378.0573,138.015673 378.778569,139.075793 378.671004,140.280587 Z M333.20731,154.941729 L334.58189,154.941729 L334.58189,154.691126 L333.470386,154.691126 L333.470386,153.756308 L334.58189,153.756308 L334.58189,153.495812 L333.470386,153.495812 L333.470386,152.579954 L334.58189,152.579954 L334.58189,152.319458 L333.20731,152.319458 L333.20731,154.941729 Z M330.955118,153.919942 L332.300513,153.919942 C332.24879,154.157049 332.114153,154.36853 331.920284,154.517187 C331.736947,154.668133 331.505556,154.750177 331.266972,154.74883 C330.973439,154.754991 330.69065,154.639635 330.486918,154.43063 C330.282211,154.208878 330.175063,153.939314 330.175063,153.621526 C330.175063,153.322285 330.282211,153.062614 330.487335,152.84045 C330.701631,152.628179 330.955534,152.522661 331.267389,152.522661 C331.442495,152.522661 331.598839,152.560994 331.745178,152.628591 C331.88151,152.705668 332.017842,152.82149 332.145002,152.985124 L332.466447,152.985124 C332.339703,152.753481 332.17377,152.580366 331.969063,152.455064 C331.764356,152.329762 331.540054,152.272058 331.276562,152.272058 C331.081444,152.272058 330.905921,152.30091 330.749994,152.368095 C330.584477,152.426212 330.447728,152.522661 330.311396,152.647963 C330.178601,152.773715 330.072449,152.924338 329.999124,153.091054 C329.929971,153.259639 329.893619,153.439612 329.891976,153.621526 C329.891976,154.007324 330.028308,154.334592 330.281794,154.604568 C330.534585,154.862317 330.883858,155.00536 331.24696,154.999846 C331.617184,154.999846 331.929456,154.874544 332.192531,154.633421 C332.446018,154.383229 332.582767,154.074509 332.601945,153.688711 L330.954284,153.688711 L330.954284,153.919942 L330.955118,153.919942 Z M329.073148,154.633421 L327.610599,152.319458 L327.298744,152.319458 L327.298744,154.941729 L327.55223,154.941729 L327.523046,152.628179 L328.985178,154.941729 L329.29745,154.941729 L329.29745,152.319458 L329.034375,152.319458 L329.073148,154.633421 Z M324.81266,152.319458 L324.549167,152.319458 L324.549167,154.941729 L325.748641,154.941729 L325.748641,154.691126 L324.81266,154.691126 L324.81266,152.319458 Z M326.313983,154.941729 L326.577475,154.941729 L326.577475,152.319458 L326.313983,152.319458 L326.313983,154.941729 Z M336.785304,153.678818 C336.912047,153.534144 336.970415,153.36103 336.970415,153.158239 C336.970415,153.023457 336.941231,152.888675 336.872856,152.762961 C336.816564,152.648454 336.73284,152.54927 336.628959,152.474024 C336.551314,152.416147 336.461342,152.376535 336.365884,152.358203 C336.268325,152.329762 336.141582,152.319458 335.985654,152.319458 L335.273975,152.319458 L335.273975,154.941317 L335.527461,154.941317 L335.527461,152.579954 L335.917696,152.579954 C336.102808,152.579954 336.239141,152.589434 336.307932,152.608806 C336.385896,152.628179 336.444264,152.666923 336.50305,152.704844 C336.561418,152.762961 336.610198,152.830558 336.639382,152.907635 C336.678572,152.984712 336.688162,153.070857 336.688162,153.157826 C336.688162,153.311981 336.639382,153.437695 336.531817,153.533732 C336.424252,153.629769 336.288337,153.678406 336.122403,153.678406 L335.868917,153.678406 L336.658977,154.940905 L336.970832,154.940905 L336.327527,153.919118 C336.512222,153.910462 336.668566,153.823905 336.785304,153.678818 Z M337.614137,154.941729 L337.87763,154.941729 L337.87763,152.319458 L337.614137,152.319458 L337.614137,154.941729 Z M338.608904,154.941729 L339.983484,154.941729 L339.983484,154.691126 L338.87198,154.691126 L338.87198,153.756308 L339.983484,153.756308 L339.983484,153.495812 L338.87198,153.495812 L338.87198,152.579954 L339.983484,152.579954 L339.983484,152.319458 L338.608904,152.319458 L338.608904,154.941729 Z M344.2348,152.579954 C344.123317,152.489741 343.993709,152.423989 343.854571,152.387055 C343.786196,152.367683 343.717822,152.34831 343.629852,152.339243 C343.529562,152.326941 343.428641,152.320335 343.327586,152.319458 L342.586722,152.319458 L342.586722,154.941317 L343.210432,154.941317 C343.376365,154.941317 343.523121,154.941317 343.629852,154.931837 C343.708232,154.922769 343.766601,154.912465 343.81538,154.893505 C343.945322,154.862767 344.067867,154.807023 344.176015,154.729458 C344.35112,154.604156 344.478281,154.450002 344.575839,154.266995 C344.662975,154.074096 344.711755,153.862237 344.711755,153.630594 C344.711755,153.418322 344.662975,153.226248 344.585429,153.042829 C344.502395,152.866103 344.382974,152.708452 344.2348,152.579954 Z M344.15642,154.42115 C344.01967,154.555931 343.844565,154.642901 343.629435,154.681645 C343.545555,154.693177 343.461042,154.699646 343.376365,154.701018 L342.840208,154.701018 L342.840208,152.570474 L343.317997,152.570474 C343.435151,152.570474 343.541882,152.579954 343.629852,152.589846 C343.688637,152.599326 343.737417,152.609219 343.776607,152.618699 C343.884172,152.647551 343.980897,152.705256 344.068867,152.782333 C344.186021,152.878782 344.273157,153.004084 344.331942,153.148759 C344.400317,153.293433 344.429501,153.447587 344.429501,153.621114 C344.429084,153.968167 344.341531,154.228251 344.15642,154.42115 Z M345.297108,154.941729 L346.681694,154.941729 L346.681694,154.691126 L345.560184,154.691126 L345.560184,153.756308 L346.681694,153.756308 L346.681694,153.495812 L345.560184,153.495812 L345.560184,152.579954 L346.681694,152.579954 L346.681694,152.319458 L345.297108,152.319458 L345.297108,154.941729 Z M358.069401,154.604156 L357.143843,152.319458 L356.763196,152.319458 L356.763196,154.941729 L357.016683,154.941729 L357.016683,152.628179 L357.952247,154.941729 L358.186972,154.941729 L359.112531,152.628179 L359.112531,154.941729 L359.366851,154.941729 L359.366851,152.319458 L358.986205,152.319458 L358.069401,154.604156 Z M349.284932,154.941729 L349.538001,154.941729 L349.538001,153.756308 L350.591137,153.756308 L350.591137,153.495812 L349.538001,153.495812 L349.538001,152.579954 L350.591137,152.579954 L350.591137,152.319458 L349.284932,152.319458 L349.284932,154.941729 Z M351.322412,154.941729 L352.697409,154.941729 L352.697409,154.691126 L351.585904,154.691126 L351.585904,153.756308 L352.697409,153.756308 L352.697409,153.495812 L351.585904,153.495812 L351.585904,152.579954 L352.697409,152.579954 L352.697409,152.319458 L351.322412,152.319458 L351.322412,154.941729 Z M360.068525,154.941729 L361.443104,154.941729 L361.443104,154.691126 L360.3316,154.691126 L360.3316,153.756308 L361.443104,153.756308 L361.443104,153.495812 L360.3316,153.495812 L360.3316,152.579954 L361.443104,152.579954 L361.443104,152.319458 L360.068525,152.319458 L360.068525,154.941729 Z M354.744895,154.604156 L353.828508,152.319458 L353.448279,152.319458 L353.448279,154.941729 L353.691759,154.941729 L353.691759,152.628179 L354.627324,154.941729 L354.862049,154.941729 L355.797613,152.628179 L355.797613,154.941729 L356.051517,154.941729 L356.051517,152.319458 L355.661698,152.319458 L354.744895,154.604156 Z" id="Aubade"></path>
            </g>
        </g>
    </g>
</svg>