<?xml version="1.0" encoding="UTF-8"?>
<svg width="146px" height="28px" viewBox="0 0 146 28" version="1.1" xmlns="http://www.w3.org/2000/svg" xmlns:xlink="http://www.w3.org/1999/xlink">
    <!-- Generator: Sketch 52.2 (67145) - http://www.bohemiancoding.com/sketch -->
    <title>logo</title>
    <desc>Created with Sketch.</desc>
    <defs>
        <polygon id="path-1" points="12.5208 5.35667606 5.3788 5.35667606 0.0992 0.165633803 7.2408 0.165633803"></polygon>
        <path d="M77.8568,7.89284507 C77.8568,13.3918873 80.7388,16.1429859 86.5044,16.1429859 C88.264,16.1429859 89.836,15.8838873 91.2212,15.3672676 L91.2212,12.7096338 C89.836,13.3 88.3384,13.596169 86.7288,13.596169 C82.8736,13.596169 80.9452,11.6945352 80.9452,7.89284507 C80.9452,4.38811268 82.8736,2.63515493 86.7288,2.63515493 C88.3384,2.63515493 89.836,2.93014085 91.2212,3.52011268 L91.2212,0.862478873 C89.836,0.346647887 88.264,0.0883380282 86.5044,0.0883380282 C80.7388,0.0883380282 77.8568,2.68997183 77.8568,7.89284507 Z M47.2592,4.9595493 C47.2592,7.91216901 48.9032,9.38867606 52.19,9.38867606 L54.9304,9.38867606 C56.442,9.38867606 57.1992,9.97864789 57.1992,11.1593803 C57.1992,12.7829859 55.968,13.596169 53.5048,13.596169 C51.4748,13.596169 49.656,13.3 48.0468,12.7096338 L48.0468,15.3672676 C49.656,15.8838873 51.4748,16.1429859 53.5048,16.1429859 C57.9516,16.1429859 60.1752,14.4815211 60.1752,11.1593803 C60.1752,8.20794366 58.4264,6.72946479 54.9304,6.72946479 L52.19,6.72946479 C50.8868,6.72946479 50.2356,6.13949296 50.2356,4.9595493 C50.2356,3.41008451 51.5836,2.63515493 54.2788,2.63515493 C56.0756,2.63515493 57.7792,2.93014085 59.3884,3.52011268 L59.3884,0.862478873 C57.7792,0.346647887 56.0756,0.0883380282 54.2788,0.0883380282 C49.5992,0.0883380282 47.2592,1.7115493 47.2592,4.9595493 Z M27.4664,7.89284507 C27.4664,13.3918873 30.3004,16.1429859 35.968,16.1429859 C37.9152,16.1429859 39.5352,15.8629859 40.8296,15.3014085 L40.8296,8.72416901 L37.854,8.72416901 L37.854,13.3295775 C37.1656,13.5070423 36.552,13.596169 36.0128,13.596169 C32.3744,13.596169 30.5548,11.6945352 30.5548,7.89284507 C30.5548,4.38811268 32.4836,2.63515493 36.3384,2.63515493 C37.9472,2.63515493 39.4452,2.93014085 40.8296,3.52011268 L40.8296,0.862478873 C39.4452,0.346647887 37.8732,0.0883380282 36.114,0.0883380282 C30.3488,0.0883380282 27.4664,2.68997183 27.4664,7.89284507 Z M10.2976,8.13774648 C10.5376,13.4739155 13.226,16.1429859 18.3636,16.1429859 C23.6584,16.1429859 26.302,13.4739155 26.302,8.13774648 C26.302,2.77121127 23.6584,0.0883380282 18.3636,0.0883380282 C12.9864,0.0883380282 10.2976,2.77121127 10.2976,8.13774648 Z M13.3872,8.07070423 C13.3872,4.44687324 15.046,2.63515493 18.3636,2.63515493 C21.6,2.63515493 23.2176,4.44687324 23.2176,8.07070423 C23.2176,11.7532958 21.6,13.596169 18.3636,13.596169 C15.046,13.596169 13.3872,11.7532958 13.3872,8.07070423 Z M73.1544,16.0313803 L76.1308,16.0313803 L76.1308,0.198760563 L73.1544,0.198760563 L73.1544,16.0313803 Z M60.3652,0.198760563 L60.3652,2.74557746 L64.97,2.74557746 L64.97,16.0313803 L67.946,16.0313803 L67.946,2.74557746 L72.5504,2.74557746 L72.5504,0.198760563 L60.3652,0.198760563 Z M42.5572,16.0313803 L45.5324,16.0313803 L45.5324,0.198760563 L42.5572,0.198760563 L42.5572,16.0313803 Z M0.34,0.198760563 L0.34,16.0313803 L10.8176,16.0313803 L10.8176,13.4837746 L3.3156,13.4837746 L3.3156,0.198760563 L0.34,0.198760563 Z" id="path-3"></path>
    </defs>
    <g id="Design" stroke="none" stroke-width="1" fill="none" fill-rule="evenodd">
        <g id="1a-Home" transform="translate(-497.000000, -4002.000000)">
            <g id="Section-6" transform="translate(0.000000, 3840.000000)">
                <g id="logo" transform="translate(497.000000, 162.000000)">
                    <polygon id="Fill-1" fill="#FFFFFF" points="0 0.00102535211 0.0036 27.9201803 7.5272 27.9201803 7.5272 16.2272225 13.632 16.2272225 13.632 10.8579268 7.588 10.8579268 7.588 5.59826479 14.2844 5.59826479 14.2808 0.00102535211"></polygon>
                    <polygon id="Fill-2" fill="#FFFFFF" points="28.98864 -3.94366197e-05 27.34824 12.3834535 25.45144 -3.94366197e-05 15.85304 -3.94366197e-05 15.85304 27.9167493 22.40904 27.9167493 22.38584 10.3966366 25.05384 27.9273972 29.66424 27.9273972 32.15344 10.3966366 32.14784 27.9064958 38.54704 27.9064958 38.54704 -3.94366197e-05"></polygon>
                    <path d="M40.49924,19.1479775 L47.64164,19.1479775 L52.92084,13.9608789 L45.78004,13.9608789 L40.49924,19.1479775 Z M52.92084,13.9604845 L47.64084,8.76944225 L40.49924,8.76944225 L45.77884,13.9604845 L52.92084,13.9604845 Z" id="Fill-3" fill="#FFFFFF"></path>
                    <g id="Group-6" transform="translate(40.400000, 8.603651)">
                        <mask id="mask-2" fill="white">
                            <use xlink:href="#path-1"></use>
                        </mask>
                        <g id="Clip-5"></g>
                        <polygon id="Fill-4" fill="#FFFFFF" mask="url(#mask-2)" points="12.5208 5.35667606 5.3788 5.35667606 0.0992 0.165633803 7.2408 0.165633803"></polygon>
                    </g>
                    <g id="Group-9" transform="translate(54.400000, 5.843087)">
                        <mask id="mask-4" fill="white">
                            <use xlink:href="#path-3"></use>
                        </mask>
                        <g id="Clip-8"></g>
                        <path d="M77.8568,7.89284507 C77.8568,13.3918873 80.7388,16.1429859 86.5044,16.1429859 C88.264,16.1429859 89.836,15.8838873 91.2212,15.3672676 L91.2212,12.7096338 C89.836,13.3 88.3384,13.596169 86.7288,13.596169 C82.8736,13.596169 80.9452,11.6945352 80.9452,7.89284507 C80.9452,4.38811268 82.8736,2.63515493 86.7288,2.63515493 C88.3384,2.63515493 89.836,2.93014085 91.2212,3.52011268 L91.2212,0.862478873 C89.836,0.346647887 88.264,0.0883380282 86.5044,0.0883380282 C80.7388,0.0883380282 77.8568,2.68997183 77.8568,7.89284507 Z M47.2592,4.9595493 C47.2592,7.91216901 48.9032,9.38867606 52.19,9.38867606 L54.9304,9.38867606 C56.442,9.38867606 57.1992,9.97864789 57.1992,11.1593803 C57.1992,12.7829859 55.968,13.596169 53.5048,13.596169 C51.4748,13.596169 49.656,13.3 48.0468,12.7096338 L48.0468,15.3672676 C49.656,15.8838873 51.4748,16.1429859 53.5048,16.1429859 C57.9516,16.1429859 60.1752,14.4815211 60.1752,11.1593803 C60.1752,8.20794366 58.4264,6.72946479 54.9304,6.72946479 L52.19,6.72946479 C50.8868,6.72946479 50.2356,6.13949296 50.2356,4.9595493 C50.2356,3.41008451 51.5836,2.63515493 54.2788,2.63515493 C56.0756,2.63515493 57.7792,2.93014085 59.3884,3.52011268 L59.3884,0.862478873 C57.7792,0.346647887 56.0756,0.0883380282 54.2788,0.0883380282 C49.5992,0.0883380282 47.2592,1.7115493 47.2592,4.9595493 Z M27.4664,7.89284507 C27.4664,13.3918873 30.3004,16.1429859 35.968,16.1429859 C37.9152,16.1429859 39.5352,15.8629859 40.8296,15.3014085 L40.8296,8.72416901 L37.854,8.72416901 L37.854,13.3295775 C37.1656,13.5070423 36.552,13.596169 36.0128,13.596169 C32.3744,13.596169 30.5548,11.6945352 30.5548,7.89284507 C30.5548,4.38811268 32.4836,2.63515493 36.3384,2.63515493 C37.9472,2.63515493 39.4452,2.93014085 40.8296,3.52011268 L40.8296,0.862478873 C39.4452,0.346647887 37.8732,0.0883380282 36.114,0.0883380282 C30.3488,0.0883380282 27.4664,2.68997183 27.4664,7.89284507 Z M10.2976,8.13774648 C10.5376,13.4739155 13.226,16.1429859 18.3636,16.1429859 C23.6584,16.1429859 26.302,13.4739155 26.302,8.13774648 C26.302,2.77121127 23.6584,0.0883380282 18.3636,0.0883380282 C12.9864,0.0883380282 10.2976,2.77121127 10.2976,8.13774648 Z M13.3872,8.07070423 C13.3872,4.44687324 15.046,2.63515493 18.3636,2.63515493 C21.6,2.63515493 23.2176,4.44687324 23.2176,8.07070423 C23.2176,11.7532958 21.6,13.596169 18.3636,13.596169 C15.046,13.596169 13.3872,11.7532958 13.3872,8.07070423 Z M73.1544,16.0313803 L76.1308,16.0313803 L76.1308,0.198760563 L73.1544,0.198760563 L73.1544,16.0313803 Z M60.3652,0.198760563 L60.3652,2.74557746 L64.97,2.74557746 L64.97,16.0313803 L67.946,16.0313803 L67.946,2.74557746 L72.5504,2.74557746 L72.5504,0.198760563 L60.3652,0.198760563 Z M42.5572,16.0313803 L45.5324,16.0313803 L45.5324,0.198760563 L42.5572,0.198760563 L42.5572,16.0313803 Z M0.34,0.198760563 L0.34,16.0313803 L10.8176,16.0313803 L10.8176,13.4837746 L3.3156,13.4837746 L3.3156,0.198760563 L0.34,0.198760563 Z" id="Fill-7" fill="#FFFFFF" mask="url(#mask-4)"></path>
                    </g>
                </g>
            </g>
        </g>
    </g>
</svg>