<?xml version="1.0" encoding="UTF-8"?>
<svg width="45px" height="55px" viewBox="0 0 45 55" version="1.1" xmlns="http://www.w3.org/2000/svg" xmlns:xlink="http://www.w3.org/1999/xlink">
    <!-- Generator: sketchtool 52.2 (67145) - http://www.bohemiancoding.com/sketch -->
    <title>D2117FCF-4B74-4BCD-A27D-A2BEEC9DED23@1x</title>
    <desc>Created with sketchtool.</desc>
    <g id="Design" stroke="none" stroke-width="1" fill="none" fill-rule="evenodd">
        <g id="1a-Home" transform="translate(-641.000000, -692.000000)" fill="#7A819A">
            <g id="Section-1" transform="translate(120.000000, 580.000000)">
                <path d="M547.125974,117.989001 L545.202387,117.989001 L544.480883,116.644433 L540.874633,116.644433 L539.672232,117.989001 L538.831217,117.989001 L544.000303,112 L547.125974,117.989001 Z M544.120765,116.033383 L543.03851,114.077764 L541.355529,116.033383 L544.120765,116.033383 Z M534.743436,115.055573 L533.060138,115.055573 L535.464622,117.989001 L537.748645,117.989001 L535.464622,115.422333 C538.590293,115.422333 538.469831,113.589182 538.469831,113.589182 C538.469831,112.12279 536.065664,112.12279 536.065664,112.12279 L531.738227,112.12279 L530.656288,117.989324 L532.579558,117.989324 L533.42089,112.611373 L535.224015,112.611373 C535.224015,112.611373 536.426416,112.611373 536.426416,113.711327 C536.426733,113.711005 536.426733,115.055573 534.743436,115.055573 Z M552.175233,112.733518 L555.301221,112.733518 L555.301221,112.122468 L547.246119,112.122468 L547.246119,112.733518 L550.251645,112.733518 L549.289852,117.989001 L551.213756,117.989001 L552.175233,112.733518 Z M557.585243,117.989001 L557.585243,117.989324 L555.7818,117.989324 L556.743911,112.12279 L561.071666,112.12279 C561.071666,112.12279 563.475833,112.12279 563.475833,113.589182 C563.475833,113.589182 563.716123,115.5448 560.470624,115.5448 L557.945678,115.5448 L557.585243,117.989001 Z M558.547037,112.61105 L558.066457,115.055573 L559.749437,115.055573 C561.552562,115.055573 561.432418,113.711005 561.432418,113.711005 C561.432418,112.61105 560.350162,112.61105 560.350162,112.61105 L558.547037,112.61105 Z M536.186126,130.944491 C538.710755,128.255677 542.317323,126.300058 546.284643,126.300058 C553.978675,126.300058 560.109555,132.533351 560.109555,140.355825 C560.109555,145.489162 557.344319,150.744323 553.257488,153.188524 C552.656447,155.144143 552.175233,156.610857 552.055088,159.177848 C560.109555,156.733002 565.88,149.277609 565.88,140.355825 C565.88,129.355954 557.224174,120.800284 546.284643,120.800284 C540.153446,120.800284 534.743436,123.611566 531.136868,128.133531 C531.136868,128.133209 534.022249,128.988872 536.186126,130.944491 Z M532.94031,136.566411 C532.579558,137.910657 532.459413,138.888789 532.459413,140.355503 C532.459413,148.421946 538.710755,154.53277 546.404788,154.53277 C545.923574,156.366243 545.683601,157.710812 545.563456,159.788898 C544.120765,159.788898 542.678075,159.666108 541.235701,159.299671 C532.820165,157.221907 526.568823,149.644369 526.688968,140.355503 C526.688968,138.033125 526.929258,135.955361 527.770907,133.877597 C527.770907,133.877597 530.776433,134.12221 532.94031,136.566411 Z M546.76554,135.955361 C546.76554,135.955361 547.005829,137.299607 547.125974,138.277416 C547.125974,138.277416 547.125974,138.52203 547.487043,138.644175 L548.568665,139.010934 C548.568665,139.010934 549.409997,139.255548 549.289852,140.110889 L549.169707,141.455457 C549.169707,141.455457 549.530776,140.722262 550.251328,140.844407 C550.251328,140.844407 551.093294,140.967197 551.093294,141.822539 C551.093294,141.822539 551.093294,142.800026 551.333584,143.044962 C551.333584,143.044962 551.573874,143.533544 553.016564,143.655689 C553.617606,143.77848 554.09882,144.144916 554.09882,144.144916 C555.180442,145.000258 554.459889,146.344826 554.459889,146.344826 C554.459889,146.344826 552.416157,150.866791 551.454046,155.144787 C551.454046,155.144787 549.650604,161.989453 551.333901,167 L548.9291,167 C546.164498,158.56712 551.574191,147.078344 551.574191,147.078344 C551.574191,147.078344 552.295378,145.978067 551.454046,145.733776 C551.093611,145.733776 551.093611,145.733776 550.732859,145.61163 C550.732859,145.61163 549.410314,145.61163 549.650604,143.900625 C549.891527,142.678202 548.929417,143.289575 548.929417,143.289575 C547.847795,143.900625 547.72765,142.922494 547.72765,142.922494 C547.72765,142.556057 547.607505,141.822861 547.607505,141.822861 C547.607505,141.333634 547.246436,141.333634 547.246436,141.333634 L546.04467,140.967197 C545.202704,140.844407 545.202704,139.989066 545.202704,139.989066 L544.962414,137.789156 C544.962414,136.811347 544.00062,137.178106 544.00062,137.178106 C543.519724,137.300251 541.716281,137.544865 541.716281,137.544865 C541.716281,137.544865 540.754488,137.789478 539.191652,137.423042 C537.989569,137.178428 536.546878,136.322764 534.743436,134.856373 C533.060138,133.267513 530.896261,132.533995 530.896261,132.533995 C526.448044,130.945136 521.88,132.900754 521.88,132.900754 L521.88,130.334085 C521.88,130.334085 525.726858,128.256321 531.136868,129.845181 C531.136868,129.845181 533.781642,130.578377 536.787168,133.145045 C536.787168,133.145045 537.748645,134.000387 538.951045,134.611759 C538.951045,134.611759 540.032984,135.344955 541.836426,135.100664 C544.000303,134.734227 545.20207,134.734227 545.20207,134.734227 C545.20207,134.734227 546.76554,134.488969 546.76554,135.955361 Z" id="Shape"></path>
            </g>
        </g>
    </g>
</svg>