<?xml version="1.0" encoding="UTF-8"?>
<svg width="60px" height="60px" viewBox="0 0 60 60" version="1.1" xmlns="http://www.w3.org/2000/svg" xmlns:xlink="http://www.w3.org/1999/xlink">
    <!-- Generator: Sketch 52.2 (67145) - http://www.bohemiancoding.com/sketch -->
    <title>engagement </title>
    <desc>Created with Sketch.</desc>
    <defs>
        <path d="M0,30 C0,46.568 13.432,60 30,60 C46.568,60 60,46.568 60,30 C60,13.432 46.568,0 30,0 C13.432,0 0,13.432 0,30 Z" id="path-1"></path>
        <path d="M0,9.077 C0,9.435 0.252,9.821 0.56,9.948 L20.928,18.367 L20.94,18.372 C21.253,18.502 21.499,18.321 21.499,17.963 C21.499,17.918 21.499,17.873 21.488,17.831 C21.44,12.564 18.514,6.904 14.44,3.505 C14.136,3.703 13.816,3.856 13.48,3.952 C12.636,4.229 11.707,4.173 10.747,3.776 C9.326,3.189 8.055,1.958 7.038,0.452 C2.936,0.492 0,3.787 0,9.077 Z" id="path-3"></path>
        <path d="M0.709,4.553 C0.709,7.724 2.912,12.324 5.747,13.495 C6.49,13.803 7.218,13.841 7.899,13.617 C8.414,13.471 8.889,13.168 9.309,12.732 C9.325,12.72 9.342,12.708 9.354,12.686 C10.248,11.73 10.785,10.249 10.785,8.718 C10.785,5.535 8.525,2.014 5.747,0.865 C5.148,0.617 4.573,0.5 4.04,0.5 C2.099,0.5 0.709,2.056 0.709,4.553 Z" id="path-5"></path>
        <path d="M0,9.077 C0,9.435 0.252,9.821 0.559,9.948 L20.929,18.368 L20.94,18.372 C21.253,18.502 21.499,18.322 21.499,17.963 C21.499,17.918 21.499,17.874 21.489,17.83 C21.44,12.564 18.514,6.903 14.441,3.505 C14.136,3.703 13.815,3.856 13.48,3.951 C12.635,4.229 11.707,4.173 10.747,3.777 C9.326,3.189 8.054,1.959 7.038,0.453 C2.937,0.492 0,3.787 0,9.077 Z" id="path-7"></path>
        <path d="M0.709,4.554 C0.709,7.724 2.912,12.323 5.747,13.495 C6.49,13.803 7.218,13.841 7.899,13.617 C8.414,13.471 8.89,13.168 9.308,12.733 C9.326,12.719 9.342,12.708 9.353,12.687 C10.248,11.73 10.785,10.249 10.785,8.718 C10.785,5.535 8.525,2.014 5.747,0.865 C5.148,0.617 4.574,0.5 4.041,0.5 C2.099,0.5 0.709,2.056 0.709,4.554 Z" id="path-9"></path>
        <path d="M0.709,4.554 C0.709,7.724 2.912,12.323 5.747,13.495 C6.49,13.803 7.218,13.841 7.899,13.617 C8.414,13.471 8.89,13.168 9.308,12.733 C9.326,12.719 9.342,12.708 9.353,12.687 C10.248,11.73 10.785,10.249 10.785,8.718 C10.785,5.535 8.525,2.014 5.747,0.865 C5.149,0.617 4.573,0.5 4.041,0.5 C2.099,0.5 0.709,2.056 0.709,4.554 Z" id="path-11"></path>
    </defs>
    <g id="Icons" stroke="none" stroke-width="1" fill="none" fill-rule="evenodd">
        <g id="Artboard" transform="translate(-818.000000, -1661.000000)">
            <g id="2" transform="translate(773.000000, 1616.000000)">
                <g id="picto">
                    <g id="engagement-" transform="translate(45.000000, 45.000000)">
                        <g id="Group-3">
                            <mask id="mask-2" fill="white">
                                <use xlink:href="#path-1"></use>
                            </mask>
                            <g id="Clip-2"></g>
                            <polygon id="Fill-1" fill="#00D1C1" opacity="0.2" mask="url(#mask-2)" points="-5 65 65 65 65 -5 -5 -5"></polygon>
                        </g>
                        <g id="Group-6" transform="translate(21.000000, 26.000000)">
                            <mask id="mask-4" fill="white">
                                <use xlink:href="#path-3"></use>
                            </mask>
                            <g id="Clip-5"></g>
                            <polygon id="Fill-4" fill="#00D1C1" mask="url(#mask-4)" points="-5 23.414 26.499 23.414 26.499 -4.547 -5 -4.547"></polygon>
                        </g>
                        <path d="M21.3145,29.0127 L24.6205,27.3967 L31.2645,29.5047 C31.2645,29.5047 33.1905,30.8527 35.3865,29.5327 L35.4295,29.4987 L35.4405,29.5047 L31.4405,31.5047 C31.4405,31.5047 29.5815,32.9047 27.2095,31.5007 C24.8355,30.0967 24.0385,28.4527 24.0385,28.4527 C24.0385,28.4527 23.0515,28.4027 21.3145,29.0127" id="Fill-7" fill="#54C4C2"></path>
                        <g id="Group-11" transform="translate(26.000000, 15.000000)">
                            <mask id="mask-6" fill="white">
                                <use xlink:href="#path-5"></use>
                            </mask>
                            <g id="Clip-10"></g>
                            <polygon id="Fill-9" fill="#54C4C2" mask="url(#mask-6)" points="-4.291 18.76 15.785 18.76 15.785 -4.5 -4.291 -4.5"></polygon>
                        </g>
                        <g id="Group-14" transform="translate(17.000000, 28.000000)">
                            <mask id="mask-8" fill="white">
                                <use xlink:href="#path-7"></use>
                            </mask>
                            <g id="Clip-13"></g>
                            <polygon id="Fill-12" fill="#17E2B3" mask="url(#mask-8)" points="-5 23.414 26.499 23.414 26.499 -4.547 -5 -4.547"></polygon>
                        </g>
                        <path d="M27.7471,30.4956 C28.4901,30.8026 29.2181,30.8406 29.8991,30.6166 C30.4141,30.4706 30.8901,30.1676 31.3091,29.7326 C31.3251,29.7196 31.3421,29.7076 31.3531,29.6866 C32.2481,28.7306 32.7851,27.2486 32.7851,25.7176 C32.7851,22.5346 30.5251,19.0136 27.7471,17.8646 C24.9681,16.7166 22.7091,18.3706 22.7091,21.5536 C22.7091,24.7236 24.9121,29.3236 27.7471,30.4956" id="Fill-15" fill="#00D1C1"></path>
                        <g id="Group-19" transform="translate(22.000000, 17.000000)">
                            <mask id="mask-10" fill="white">
                                <use xlink:href="#path-9"></use>
                            </mask>
                            <g id="Clip-18"></g>
                            <polygon id="Fill-17" fill="#00D1C1" mask="url(#mask-10)" points="-840 1527 499 1527 499 -1678 -840 -1678"></polygon>
                        </g>
                        <g id="Group-22" transform="translate(22.000000, 17.000000)">
                            <mask id="mask-12" fill="white">
                                <use xlink:href="#path-11"></use>
                            </mask>
                            <g id="Clip-21"></g>
                            <polygon id="Fill-20" fill="#17E2B3" mask="url(#mask-12)" points="-4.291 18.76 15.785 18.76 15.785 -4.5 -4.291 -4.5"></polygon>
                        </g>
                        <g id="Group-29" transform="translate(24.000000, 15.000000)" fill="#54C4C2">
                            <path d="M0.4502,2.8706 L4.5572,0.8556 C4.5572,0.8556 5.6472,0.1276 7.4442,0.7606 C9.2402,1.3926 10.7652,2.8686 11.7442,4.7906 L7.7972,6.8856 C7.7972,6.8856 6.8702,4.7396 4.5352,3.2456 C4.5352,3.2456 2.5112,1.8596 0.4502,2.8706" id="Fill-23"></path>
                            <path d="M10.3848,13.4155 L6.3328,15.4695 C6.3328,15.4695 7.4898,14.8525 8.1068,13.6215 L10.3848,13.4155 Z" id="Fill-25"></path>
                            <path d="M18.3125,29.3472 L14.3615,31.3222 C14.3615,31.3222 14.5135,31.1322 14.4755,30.4302 C14.4375,29.7272 14.2665,27.9792 14.0005,27.0492 L18.3125,29.3472 Z" id="Fill-27"></path>
                        </g>
                    </g>
                </g>
            </g>
        </g>
    </g>
</svg>