<?xml version="1.0" encoding="UTF-8"?>
<svg width="60px" height="60px" viewBox="0 0 60 60" version="1.1" xmlns="http://www.w3.org/2000/svg" xmlns:xlink="http://www.w3.org/1999/xlink">
    <!-- Generator: sketchtool 52.2 (67145) - http://www.bohemiancoding.com/sketch -->
    <title>59AF490A-1436-4F4E-BB29-2C2648A84F7E</title>
    <desc>Created with sketchtool.</desc>
    <defs>
        <path d="M2.70967742,0 C14.7526882,4.8 20.7741935,7.2 20.7741935,7.2 C20.7741935,7.2 20.7741935,12.9 20.7741935,24.3 C9.93548387,18.9 3.61290323,17.1 1.80645161,18.9 C6.08402217e-14,20.7 0.301075269,14.4 2.70967742,0 Z" id="path-1"></path>
    </defs>
    <g id="Design" stroke="none" stroke-width="1" fill="none" fill-rule="evenodd">
        <g id="2b-Features---Simuler" transform="translate(-729.000000, -878.000000)">
            <g id="Section-1" transform="translate(194.000000, 878.000000)">
                <g id="2" transform="translate(535.000000, 0.000000)">
                    <g id="gestionevent">
                        <circle id="Oval-4" fill="#00D1C1" fill-rule="nonzero" opacity="0.2" cx="30" cy="30" r="30"></circle>
                        <g id="calendar" transform="translate(15.000000, 14.000000)">
                            <path d="M24.8699584,6.11572132 L12.9140374,1.21972845 C11.8100798,0.767653793 10.5486663,1.29610939 10.0965917,2.40006705 C9.99020697,2.65985646 9.93548387,2.93789257 9.93548387,3.21862063 L9.93548387,18.0201969 C9.93548387,20.0660766 11.1722418,21.9089722 13.0655255,22.6842787 L25.0214465,27.5802716 C26.1254041,28.0323462 27.3868175,27.5038906 27.8388922,26.3999329 C27.9452769,26.1401435 28,25.8621074 28,25.5813794 L28,10.7798031 C28,8.73392345 26.7632421,6.89102785 24.8699584,6.11572132 Z" id="Shape" fill="#54C4C2"></path>
                            <path d="M9.70725805,4.9963821 L15.5830645,7.40254611 L15.5830645,6.95982334 C15.5830645,6.79098123 15.6151037,6.62367261 15.677482,6.46677578 C15.9497846,5.78186669 16.725758,5.44738308 17.4106671,5.71968572 C18.2129348,6.0386472 18.7395161,6.81467504 18.7395161,7.67802311 L18.7395161,8.69512444 L19.7064015,9.09106752 C21.85325,9.97020975 23.2556451,12.0599217 23.2556451,14.3798031 L23.2556451,29.1813794 C23.2556451,29.5498349 23.1838211,29.9147573 23.0441912,30.2557309 C22.4508432,31.7046754 20.7952381,32.3982733 19.3462936,31.8049253 L6.49607501,26.5427144 C4.89016474,25.8850883 3.84112905,24.3219179 3.84112905,22.5865737 L3.84112905,6.81862063 C3.84112905,6.45016506 3.91295311,6.08524266 4.05258303,5.74426906 C4.48191858,4.69583986 5.47509111,4.03342731 6.55080647,3.98555015 L6.55080647,3.35982334 C6.55080647,3.19098123 6.58284567,3.02367261 6.64522391,2.86677578 C6.91752656,2.18186669 7.69349998,1.84738308 8.37840907,2.11968572 C9.18067678,2.4386472 9.70725805,3.21467504 9.70725805,4.07802311 L9.70725805,4.9963821 Z" id="Combined-Shape" stroke="#CCF6F3" stroke-width="1.34999996" fill="#54C4C2" stroke-linecap="round" stroke-linejoin="round"></path>
                            <path d="M17.6441519,10.6157213 L5.68823097,5.71972845 C4.5842733,5.26765379 3.32285987,5.79610939 2.87078522,6.90006705 C2.76440052,7.15985646 2.70967742,7.43789257 2.70967742,7.71862063 L2.70967742,23.4865737 C2.70967742,24.9479162 3.5930759,26.2642702 4.94542139,26.8180606 L17.79564,32.0802716 C18.8995977,32.5323462 20.1610111,32.0038906 20.6130858,30.8999329 C20.7194705,30.6401435 20.7741935,30.3621074 20.7741935,30.0813794 L20.7741935,15.2798031 C20.7741935,13.2339234 19.5374357,11.3910278 17.6441519,10.6157213 Z" id="Shape" fill="#00D1C1"></path>
                            <g id="Shape" transform="translate(0.000000, 11.700000)">
                                <mask id="mask-2" fill="white">
                                    <use xlink:href="#path-1"></use>
                                </mask>
                                <g id="Mask" fill-rule="nonzero"></g>
                                <path d="M17.6441519,-1.08427868 L5.68823097,-5.98027155 C4.5842733,-6.43234621 3.32285987,-5.90389061 2.87078522,-4.79993295 C2.76440052,-4.54014354 2.70967742,-4.26210743 2.70967742,-3.98137937 L2.70967742,11.7865737 C2.70967742,13.2479162 3.5930759,14.5642702 4.94542139,15.1180606 L17.79564,20.3802716 C18.8995977,20.8323462 20.1610111,20.3038906 20.6130858,19.1999329 C20.7194705,18.9401435 20.7741935,18.6621074 20.7741935,18.3813794 L20.7741935,3.57980307 C20.7741935,1.53392345 19.5374357,-0.308972153 17.6441519,-1.08427868 Z" fill="#17E2B3" mask="url(#mask-2)"></path>
                                <path d="M8.12903226,5.4 C8.12903226,5.4 10.2365591,8.7 14.4516129,15.3" id="Path-8" stroke="#00D1C1" stroke-width="1.79999995" stroke-linecap="round" fill-rule="nonzero" mask="url(#mask-2)"></path>
                                <path d="M7.86356218,13.4892674 L14.539915,7.06093072" id="Path-9" stroke="#00D1C1" stroke-width="1.79999995" stroke-linecap="round" fill-rule="nonzero" mask="url(#mask-2)" transform="translate(11.201739, 10.275099) rotate(14.000000) translate(-11.201739, -10.275099) "></path>
                            </g>
                            <path d="M7.22580645,3.64693064 L7.22580645,3.64693064 C6.88731516,3.512355 6.50381865,3.67766131 6.36924302,4.0161526 C6.33841485,4.09369312 6.32258065,4.17637929 6.32258065,4.25982334 L6.32258065,6.99763839 C6.32258065,7.58446073 6.68050077,8.11193103 7.22580645,8.32873086 L7.22580645,8.32873086 C7.56429774,8.4633065 7.94779426,8.29800019 8.08236989,7.9595089 C8.11319805,7.88196838 8.12903226,7.79928221 8.12903226,7.71583816 L8.12903226,4.97802311 C8.12903226,4.39120077 7.77111213,3.86373047 7.22580645,3.64693064 Z" id="Shape" fill="#00D1C1"></path>
                            <path d="M16.2580645,7.24693064 L16.2580645,7.24693064 C15.9195732,7.112355 15.5360767,7.27766131 15.4015011,7.6161526 C15.3706729,7.69369312 15.3548387,7.77637929 15.3548387,7.85982334 L15.3548387,10.5976384 C15.3548387,11.1844607 15.7127588,11.711931 16.2580645,11.9287309 L16.2580645,11.9287309 C16.5965558,12.0633065 16.9800523,11.8980002 17.114628,11.5595089 C17.1454561,11.4819684 17.1612903,11.3992822 17.1612903,11.3158382 L17.1612903,8.57802311 C17.1612903,7.99120077 16.8033702,7.46373047 16.2580645,7.24693064 Z" id="Shape-Copy" fill="#00D1C1"></path>
                        </g>
                    </g>
                </g>
            </g>
        </g>
    </g>
</svg>