<?xml version="1.0" encoding="UTF-8"?>
<svg width="60px" height="60px" viewBox="0 0 60 60" version="1.1" xmlns="http://www.w3.org/2000/svg" xmlns:xlink="http://www.w3.org/1999/xlink">
    <!-- Generator: sketchtool 52.2 (67145) - http://www.bohemiancoding.com/sketch -->
    <title>FE351D8A-8774-4342-A798-46AB21AFC6CB</title>
    <desc>Created with sketchtool.</desc>
    <g id="Design" stroke="none" stroke-width="1" fill="none" fill-rule="evenodd">
        <g id="2b-Features---Simuler" transform="translate(-729.000000, -1216.000000)">
            <g id="Section-1" transform="translate(194.000000, 878.000000)">
                <g id="2-copy" transform="translate(535.000000, 338.000000)">
                    <g id="engagement-">
                        <circle id="Oval-4" fill="#00D1C1" fill-rule="nonzero" opacity="0.2" cx="30" cy="30" r="30"></circle>
                        <g id="noun_client_1401473" transform="translate(15.000000, 16.000000)">
                            <g id="Group">
                                <path d="M17.5404676,7.83601984 C17.8312013,8.3853079 18.1834673,8.90240589 18.5581209,9.32625599 C19.0781244,9.92550609 19.6260784,10.35054 20.1908233,10.5839618 C22.282031,11.448305 23.9091365,9.40512805 23.9091365,7.07371368 C23.9091365,4.71669356 22.2428866,2.11291862 20.1908233,1.26475469 C18.133163,0.414277409 16.4613162,1.63834188 16.4613162,3.995362 C16.4613162,5.12905217 16.8526925,6.53975247 17.5069201,7.7773145 C17.512517,7.78603908 17.5292737,7.81219865 17.5404676,7.83601984 Z" id="Path" fill="#54C4C2"></path>
                                <path d="M14.4399678,14.5048092 C14.1353442,14.7033713 13.815909,14.8561715 13.4806729,14.9511901 C12.6353984,15.2291799 11.7065795,15.1730318 10.7466361,14.7762656 C9.32607138,14.1891143 8.0549859,12.9583562 7.0381858,11.4524447 C2.93668694,11.4920617 0,14.786988 0,20.0764346 C0,20.4351107 0.251589279,20.8209179 0.559147923,20.9480388 L20.9289027,29.3673167 C20.9344996,29.3696301 20.9400624,29.3719293 20.9400624,29.3719293 C21.2531839,29.5013495 21.4992104,29.321218 21.4992104,28.9625419 C21.4992104,28.9177025 21.4992104,28.8729022 21.4880506,28.8298614 C21.4401353,23.5639251 18.5136867,17.9033731 14.4399678,14.5048092 Z" id="Path" fill="#00D1C1"></path>
                                <path d="M23.41879,11.4479061 C22.5760752,12.1461065 21.4586325,12.3891239 20.1909939,11.8651804 C19.4128828,11.5435695 18.6593436,10.9669095 17.952218,10.1523593 C17.5992696,9.75292204 17.2582658,9.28156541 16.9528572,8.77578153 C16.9301281,8.77831039 16.9088324,8.7847937 16.8862058,8.78763849 C16.8923146,8.91858316 16.9032696,9.05012349 16.9032696,9.18026328 C16.9032696,10.9603915 16.2949779,12.6811226 15.2744237,13.7967449 C15.2634687,13.8109424 15.253128,13.8177707 15.2421389,13.8303122 C16.71468,15.1336641 18.0248417,16.690618 19.1166204,18.3959706 L27.3982482,21.8189537 C27.7057728,21.9460605 27.9573962,21.7618312 27.9573962,21.4095663 C27.9573962,17.8246424 26.0936152,13.9628048 23.41879,11.4479061 Z" id="Path" fill="#54C4C2"></path>
                                <path d="M10.7468067,13.4954227 C11.490483,13.8028008 12.2173685,13.8406137 12.8995467,13.6165957 C13.4139532,13.4705353 13.8892153,13.1673663 14.3085762,12.7322579 C14.3253671,12.7199642 14.3421238,12.7076565 14.3533176,12.6866775 C15.2479407,11.7306142 15.784735,10.2487815 15.784735,8.71798701 C15.784735,5.53474131 13.5257897,2.01344005 10.7468067,0.864823875 C7.9678579,-0.283778178 5.70887843,1.37016314 5.70887843,4.55340883 C5.70887843,7.72387113 7.91192265,12.3237013 10.7468067,13.4954227 Z" id="Path" fill="#17E2B3"></path>
                            </g>
                        </g>
                    </g>
                </g>
            </g>
        </g>
    </g>
</svg>