<?xml version="1.0" encoding="UTF-8"?>
<svg width="60px" height="60px" viewBox="0 0 60 60" version="1.1" xmlns="http://www.w3.org/2000/svg" xmlns:xlink="http://www.w3.org/1999/xlink">
    <!-- Generator: Sketch 52.2 (67145) - http://www.bohemiancoding.com/sketch -->
    <title>share</title>
    <desc>Created with Sketch.</desc>
    <defs>
        <path d="M0,30 C0,46.568 13.431,60 30,60 C46.568,60 60,46.568 60,30 C60,13.432 46.568,0 30,0 C13.431,0 0,13.432 0,30 Z" id="path-1"></path>
    </defs>
    <g id="Icons" stroke="none" stroke-width="1" fill="none" fill-rule="evenodd">
        <g id="Artboard" transform="translate(-138.000000, -1661.000000)">
            <g id="1" transform="translate(93.000000, 1616.000000)">
                <g id="picto">
                    <g id="share" transform="translate(45.000000, 45.000000)">
                        <g id="Group-3">
                            <mask id="mask-2" fill="white">
                                <use xlink:href="#path-1"></use>
                            </mask>
                            <g id="Clip-2"></g>
                            <polygon id="Fill-1" fill-opacity="0.2" fill="#42BEB6" mask="url(#mask-2)" points="-5 65 65 65 65 -5 -5 -5"></polygon>
                        </g>
                        <polygon id="Fill-4" fill="#00D1C1" points="31.0002 37.0004 30.0002 48.0004 31.4962 49.0104 35.0002 47.0004 35.0002 34.0004"></polygon>
                        <polygon id="Fill-5" fill="#00D1C1" points="41.0001 25.9998 41.2021 34.0948 44.0001 31.9998 46.0001 21.9998"></polygon>
                        <polygon id="Fill-6" fill="#54C4C2" points="21.0003 22.0001 27.9993 31.0001 31.0003 29.0001 24.0003 20.0001"></polygon>
                        <polygon id="Fill-7" fill="#17E2B3" points="15.7974 26.6576 18.1044 25.0766 25.5344 34.7266 25.5344 47.1826 31.4964 49.0096 31.4964 36.6746 39.1354 31.4096 41.2024 34.0946 42.9994 24.5396 32.8134 23.1686 34.9414 25.9616 28.5604 30.3056 22.2984 22.1716 24.1864 20.8786 14.0004 15.9996"></polygon>
                        <polygon id="Fill-8" fill="#54C4C2" points="14.0001 15.9999 24.0001 20.9999 27.0001 18.9999 17.0001 13.9999"></polygon>
                        <polygon id="Fill-9" fill="#54C4C2" points="32.8137 23.1683 42.9827 24.6513 45.9997 22.0003 35.6087 20.4253"></polygon>
                    </g>
                </g>
            </g>
        </g>
    </g>
</svg>