<?xml version="1.0" encoding="UTF-8"?>
<svg width="60px" height="60px" viewBox="0 0 60 60" version="1.1" xmlns="http://www.w3.org/2000/svg" xmlns:xlink="http://www.w3.org/1999/xlink">
    <!-- Generator: sketchtool 52.2 (67145) - http://www.bohemiancoding.com/sketch -->
    <title>AC2A9AFD-C6A9-4EB2-97E4-60B9DDD0550C</title>
    <desc>Created with sketchtool.</desc>
    <g id="Design" stroke="none" stroke-width="1" fill="none" fill-rule="evenodd">
        <g id="2b-Features---Simuler" transform="translate(-194.000000, -1216.000000)">
            <g id="Section-1" transform="translate(194.000000, 878.000000)">
                <g id="3" transform="translate(0.000000, 338.000000)">
                    <g id="share">
                        <circle id="Oval-4" fill="#00D1C1" fill-rule="nonzero" opacity="0.2" cx="30" cy="30" r="30"></circle>
                        <g id="noun_Share_1969780" transform="translate(12.000000, 15.000000)">
                            <path d="M25.4566245,19.2107839 C24.1677423,18.7039536 23.0033368,18.9372761 22.176671,19.7185703 L15.3244823,12.6359027 C15.3635519,12.3455137 15.3845218,12.0368588 15.3845218,11.710707 C15.3845218,11.3845553 15.3635519,11.0613059 15.3237416,10.7380011 L22.1766247,9.04473141 C23.0032906,10.4779484 24.1678349,11.6270896 25.4565782,12.1338653 C27.9655539,13.120476 29.9993982,11.3110948 29.9993982,8.09974519 C29.9993982,4.88649796 27.9655539,1.47762879 25.4565782,0.491018035 C22.9482042,-0.495356075 20.9152394,1.31437102 20.9152394,4.52755895 C20.9152394,4.85371072 20.9362093,5.16770921 20.9745383,5.49968234 L14.1231365,7.19353456 C13.2956837,5.76000814 12.1319726,4.61125389 10.8423961,4.10415053 C8.33337403,3.11752157 6.29957605,4.92686171 6.29957605,8.13821133 C6.29957605,11.3513993 8.33342032,14.760387 10.8423961,15.7469978 C12.1319726,16.2541011 13.2956837,16.018608 14.1231365,15.2376825 L20.9745846,22.3199996 C20.9362556,22.6217097 20.9152857,22.928467 20.9152857,23.2453679 C20.9152857,26.4567175 22.9483894,29.8652954 25.4566245,30.8516149 C27.9656002,31.8382257 29.9994445,30.0289038 29.9994445,26.8175541 C29.9993982,23.6063642 27.9656002,20.1973946 25.4566245,19.2107839 Z" id="Path" fill="#54C4C2"></path>
                            <path d="M22.4263214,21.1696074 C21.1374393,20.6627771 19.9730338,20.8960996 19.146368,21.6773938 L12.2941792,14.5947262 C12.3332489,14.3043372 12.3542187,13.9956823 12.3542187,13.6695305 C12.3542187,13.3433788 12.3332489,13.0201294 12.2934386,12.6968247 L19.1463217,11.0035549 C19.9729875,12.4367719 21.1375319,13.5859131 22.4262751,14.0926888 C24.9352509,15.0792996 26.9690952,13.2699183 26.9690952,10.0585687 C26.9690952,6.84532148 24.9352509,3.43645232 22.4262751,2.44984156 C19.9179012,1.46346745 17.8849364,3.27319455 17.8849364,6.48638248 C17.8849364,6.81253425 17.9059063,7.12653274 17.9442353,7.45850587 L11.0928335,9.15235809 C10.2653807,7.71883167 9.10166958,6.57007742 7.81209307,6.06297405 C5.303071,5.0763451 3.26927302,6.88568524 3.26927302,10.0970349 C3.26927302,13.3102228 5.30311729,16.7192106 7.81209307,17.7058213 C9.10166958,18.2129247 10.2653807,17.9774315 11.0928335,17.196506 L17.9442816,24.2788231 C17.9059526,24.5805332 17.8849827,24.8872905 17.8849827,25.2041914 C17.8849827,28.415541 19.9180863,31.824119 22.4263214,32.8104385 C24.9352972,33.7970492 26.9691415,31.9877273 26.9691415,28.7763777 C26.9690952,25.5651877 24.9352972,22.1562182 22.4263214,21.1696074 Z" id="Path" fill="#00D1C1"></path>
                            <ellipse id="Oval" fill="#17E2B3" fill-rule="nonzero" transform="translate(7.266600, 11.747527) rotate(-23.000000) translate(-7.266600, -11.747527) " cx="7.26660014" cy="11.7475268" rx="4.99242799" ry="6.76043381"></ellipse>
                            <ellipse id="Oval" fill="#17E2B3" fill-rule="nonzero" transform="translate(21.812055, 8.147527) rotate(-23.000000) translate(-21.812055, -8.147527) " cx="21.8120547" cy="8.14752685" rx="4.99242799" ry="6.76043381"></ellipse>
                            <ellipse id="Oval" fill="#17E2B3" fill-rule="nonzero" transform="translate(21.812055, 27.047527) rotate(-23.000000) translate(-21.812055, -27.047527) " cx="21.8120547" cy="27.0475268" rx="4.99242799" ry="6.76043381"></ellipse>
                        </g>
                    </g>
                </g>
            </g>
        </g>
    </g>
</svg>