<?xml version="1.0" encoding="UTF-8"?>
<svg width="60px" height="60px" viewBox="0 0 60 60" version="1.1" xmlns="http://www.w3.org/2000/svg" xmlns:xlink="http://www.w3.org/1999/xlink">
    <!-- Generator: Sketch 52.2 (67145) - http://www.bohemiancoding.com/sketch -->
    <title>gestionevent</title>
    <desc>Created with Sketch.</desc>
    <g id="Icons" stroke="none" stroke-width="1" fill="none" fill-rule="evenodd">
        <g id="Artboard" transform="translate(-818.000000, -1441.000000)">
            <g id="2" transform="translate(773.000000, 1396.000000)">
                <g id="picto">
                    <g id="gestionevent" transform="translate(45.000000, 45.000000)">
                        <circle id="Oval-4" fill="#00D1C1" fill-rule="nonzero" opacity="0.2" cx="30" cy="30" r="30"></circle>
                        <g id="Group-4" transform="translate(19.000000, 18.000000)">
                            <polygon id="Rectangle-6" fill="#00D1C1" points="14.4444444 10.0384615 20 6.69230769 20 12.271003 14.4444444 15.6171568"></polygon>
                            <polygon id="Rectangle-6-Copy-5" fill="#00D1C1" points="14.4444444 14.6342519 20 11.288098 20 24.6538462 14.4444444 28"></polygon>
                            <polygon id="Rectangle-6-Copy" fill="#54C4C2" points="14.4444444 10.0384615 20 6.69230769 5.55555556 0 0 3.34615385"></polygon>
                            <polygon id="Rectangle-6-Copy-2" fill="#17E2B3" points="14.4444444 10.0384615 14.4444444 15.6153846 0 8.92307692 0 3.34615385"></polygon>
                            <polygon id="Rectangle-6-Copy-3" fill="#17E2B3" points="14.4444444 28 14.4444444 14.6153846 0 7.92307692 0 21.3076923"></polygon>
                            <g id="Group-13" transform="translate(4.000000, 12.000000)" fill-rule="nonzero" stroke="#FFFFFF" stroke-linecap="round" stroke-width="1.34999996">
                                <path d="M0.878136201,0.0727272727 C0.878136201,0.0727272727 2.51732378,2.47272727 5.79569892,7.27272727" id="Path-8"></path>
                                <path d="M0.643421631,6.00490695 L5.89261621,1.23160116" id="Path-9" transform="translate(3.268019, 3.618254) rotate(14.000000) translate(-3.268019, -3.618254) "></path>
                            </g>
                        </g>
                    </g>
                </g>
            </g>
        </g>
    </g>
</svg>