<?xml version="1.0" encoding="UTF-8"?>
<svg width="60px" height="60px" viewBox="0 0 60 60" version="1.1" xmlns="http://www.w3.org/2000/svg" xmlns:xlink="http://www.w3.org/1999/xlink">
    <!-- Generator: Sketch 52.2 (67145) - http://www.bohemiancoding.com/sketch -->
    <title>bdd</title>
    <desc>Created with Sketch.</desc>
    <g id="Icons" stroke="none" stroke-width="1" fill="none" fill-rule="evenodd">
        <g id="Artboard" transform="translate(-138.000000, -1441.000000)" fill-rule="nonzero">
            <g id="1" transform="translate(93.000000, 1396.000000)">
                <g id="picto">
                    <g id="bdd" transform="translate(45.000000, 45.000000)">
                        <circle id="Oval-4" fill="#00D1C1" opacity="0.2" cx="30" cy="30" r="30"></circle>
                        <g id="Group-3" transform="translate(21.000000, 16.000000)">
                            <g id="Group-4">
                                <g id="Group-2" transform="translate(0.000000, 18.086957)">
                                    <path d="M0,3.57591973 L18,3.57591973 L18,9.61028428 C16.1052632,11.5472408 13.1052632,12.5157191 9,12.5157191 C4.89473684,12.5157191 1.89473684,11.5472408 0,9.61028428 L0,3.57591973 Z" id="Rectangle" fill="#00D1C1"></path>
                                    <ellipse id="Oval" fill="#17E2B3" cx="9" cy="3.57591973" rx="9" ry="3.57591973"></ellipse>
                                </g>
                                <g id="Group-2" transform="translate(0.000000, 9.043478)">
                                    <path d="M0,3.57591973 L18,3.57591973 L18,9.61028428 C16.1052632,11.5472408 13.1052632,12.5157191 9,12.5157191 C4.89473684,12.5157191 1.89473684,11.5472408 0,9.61028428 L0,3.57591973 Z" id="Rectangle" fill="#00D1C1"></path>
                                    <ellipse id="Oval" fill="#17E2B3" cx="9" cy="3.57591973" rx="9" ry="3.57591973"></ellipse>
                                </g>
                                <g id="Group-2">
                                    <path d="M0,3.57591973 L18,3.57591973 L18,9.61028428 C16.1052632,11.5472408 13.1052632,12.5157191 9,12.5157191 C4.89473684,12.5157191 1.89473684,11.5472408 0,9.61028428 L0,3.57591973 Z" id="Rectangle" fill="#00D1C1"></path>
                                    <ellipse id="Oval" fill="#17E2B3" cx="9" cy="3.57591973" rx="9" ry="3.57591973"></ellipse>
                                </g>
                            </g>
                        </g>
                    </g>
                </g>
            </g>
        </g>
    </g>
</svg>