<?xml version="1.0" encoding="UTF-8"?>
<svg width="22px" height="22px" viewBox="0 0 22 22" version="1.1" xmlns="http://www.w3.org/2000/svg" xmlns:xlink="http://www.w3.org/1999/xlink">
    <!-- Generator: Sketch 55.2 (78181) - https://sketchapp.com -->
    <title>discount-star-premium@1x</title>
    <desc>Created with Sketch.</desc>
    <g id="Design" stroke="none" stroke-width="1" fill="none" fill-rule="evenodd" stroke-linecap="round" stroke-linejoin="round">
        <g id="1-B-4-Centre-d'aide-dpdwn" transform="translate(-587.000000, -527.000000)" stroke-width="1.34399998">
            <g id="dropdown" transform="translate(541.000000, 105.000000)">
                <g id="Group-7" transform="translate(47.000000, 420.000000)">
                    <g id="discount-star-premium" transform="translate(0.000000, 3.000000)">
                        <path d="M16.6291667,3.370875 C20.2903333,7.03204167 20.2903333,12.9679583 16.6291667,16.629125 C12.968,20.2902917 7.03208333,20.2902917 3.37091667,16.629125 C-0.29025,12.9679583 -0.29025,7.03204167 3.37091667,3.370875 C7.03208333,-0.290291667 12.968,-0.290291667 16.6291667,3.370875" id="Path" stroke="#38467A"></path>
                        <path d="M10.5983333,5.35833333 L11.8833333,8.1275 L14.3833333,8.1275 L14.3833333,8.1275 C14.7213475,8.114238 15.0061133,8.37750167 15.0193758,8.71551583 C15.0265504,8.8983775 14.9515836,9.07486833 14.815,9.19666667 L12.6483333,11.3316667 L13.8508333,14.0933333 L13.8508333,14.0933334 C13.98952,14.4274392 13.8311019,14.8107125 13.4969967,14.9494 C13.308745,15.0275432 13.0948433,15.0135953 12.9183333,14.9116671 L10.0125,13.2775004 L7.10333332,14.9116671 L7.10333338,14.9116671 C6.79006755,15.0925671 6.38946588,14.9852631 6.20856672,14.6719971 C6.10663838,14.4954871 6.09269088,14.2815862 6.1708338,14.0933337 L7.3733338,11.3333337 L5.20666713,9.19833374 L5.20666707,9.19833368 C4.95283624,8.97542452 4.92776957,8.58895118 5.15067799,8.33511702 C5.27213049,8.19681618 5.44940549,8.12055952 5.63333382,8.12749702 L8.13333382,8.12749702 L9.41666716,5.35833035 L9.41666716,5.35833034 C9.5872155,5.032022 9.98999716,4.90575367 10.3163088,5.076302 C10.4368963,5.13932817 10.5353113,5.23774284 10.5983372,5.35833034 L10.5983333,5.35833333 Z" id="Path" stroke="#FB6D6D"></path>
                    </g>
                </g>
            </g>
        </g>
    </g>
</svg>