<?xml version="1.0" encoding="UTF-8"?>
<svg width="14px" height="21px" viewBox="0 0 14 21" version="1.1" xmlns="http://www.w3.org/2000/svg" xmlns:xlink="http://www.w3.org/1999/xlink">
    <!-- Generator: Sketch 55.2 (78181) - https://sketchapp.com -->
    <title>Path@1x</title>
    <desc>Created with Sketch.</desc>
    <g id="Design" stroke="none" stroke-width="1" fill="none" fill-rule="evenodd" stroke-linejoin="round">
        <g id="1-B-4-Centre-d'aide-dpdwn" transform="translate(-1010.000000, -176.000000)" stroke="#38467A" stroke-width="1.34400009">
            <g id="dropdown" transform="translate(541.000000, 105.000000)">
                <g id="Group-6" transform="translate(470.000000, 65.000000)">
                    <path d="M0.295410573,26 L3.69754556,18.0155576 C3.78065613,17.8198417 3.76064341,17.5952434 3.64425712,17.4175132 C3.52787082,17.239783 3.33062628,17.1326139 3.11904828,17.132151 L0.631258055,17.132151 C0.418965728,17.1329596 0.220597087,17.0259762 0.103776992,16.8476718 C-0.0130431021,16.6693674 -0.0325444147,16.4438124 0.0519211492,16.2478997 L3.905771,7.38005067 C4.00587918,7.14932481 4.23231855,7 4.48258905,7 L10.9476531,7 C11.1897707,7 11.410397,7.13979702 11.5151513,7.35936388 C11.6199057,7.57893074 11.5902343,7.83946543 11.43883,8.02951505 L8.03837427,12.3055074 C7.88739507,12.4956881 7.85809507,12.7560633 7.96299383,12.9753775 C8.06789259,13.1946918 8.288437,13.3341557 8.53039083,13.3341779 L11.3699813,13.3341779 C11.6248738,13.3340614 11.854697,13.4885193 11.9521448,13.7254341 C12.0495926,13.9623489 11.9954431,14.2349885 11.8149792,14.4160555 L0.295410573,26 Z" id="Path"></path>
                </g>
            </g>
        </g>
    </g>
</svg>