<?xml version="1.0" encoding="UTF-8"?>
<svg width="21px" height="21px" viewBox="0 0 21 21" version="1.1" xmlns="http://www.w3.org/2000/svg" xmlns:xlink="http://www.w3.org/1999/xlink">
    <!-- Generator: Sketch 55.2 (78181) - https://sketchapp.com -->
    <title>cog@1x</title>
    <desc>Created with Sketch.</desc>
    <g id="Design" stroke="none" stroke-width="1" fill="none" fill-rule="evenodd" stroke-linecap="round" stroke-linejoin="round">
        <g id="1-B-4-Centre-d'aide-dpdwn" transform="translate(-587.000000, -173.000000)" stroke-width="1.34399998">
            <g id="dropdown" transform="translate(541.000000, 105.000000)">
                <g id="Group-3" transform="translate(47.000000, 65.000000)">
                    <g id="cog" transform="translate(0.000000, 4.000000)">
                        <path d="M8.0375846,1.38231531 C8.3422607,1.72051868 8.77609844,1.91360933 9.23130065,1.91360933 C9.68650286,1.91360933 10.1203406,1.72051868 10.4250167,1.38231531 L11.201671,0.530130121 C11.657781,0.0253394157 12.38217,-0.137859473 13.010679,0.122575493 C13.639188,0.383010459 14.0358423,1.01073549 14.0012389,1.69018568 L13.9429488,2.83956839 C13.9201503,3.29297723 14.0901353,3.73488598 14.4109142,4.05613401 C14.731693,4.37738203 15.1733528,4.54801283 15.6267945,4.52587703 L16.7761772,4.46758691 C17.4551686,4.43411193 18.0818756,4.8311648 18.3416418,5.45939364 C18.601408,6.08762248 18.4381234,6.81132877 17.9337698,7.26715481 L17.0783006,8.03888321 C16.7405288,8.34397735 16.5477657,8.77784796 16.5477657,9.23300975 C16.5477657,9.68817154 16.7405288,10.1220422 17.0783006,10.4271363 L17.9337698,11.1988647 C18.4385605,11.6549746 18.6017594,12.3793637 18.3413244,13.0078727 C18.0808894,13.6363817 17.4531644,14.0330359 16.7737142,13.9984326 L15.6243315,13.9401425 C15.1698954,13.9167666 14.7268421,14.0870843 14.4050824,14.408844 C14.0833227,14.7306037 13.913005,15.173657 13.9363809,15.6280931 L13.994671,16.7774758 C14.0247818,17.4533373 13.6287196,18.0757863 13.0037405,18.3348165 C12.3787615,18.5938466 11.6584975,18.4340724 11.201671,17.9350684 L10.4291216,17.0804202 C10.1241762,16.7426878 9.69043845,16.5499359 9.23540559,16.5499359 C8.78037272,16.5499359 8.34663499,16.7426878 8.04168954,17.0804202 L7.2658562,17.9350684 C6.80971422,18.4364515 6.08818604,18.5980328 5.46177218,18.3390807 C4.83535832,18.0801287 4.43853633,17.4562347 4.46957225,16.7791178 L4.52868336,15.6297351 C4.55205928,15.1752989 4.38174155,14.7322457 4.05998183,14.410486 C3.73822212,14.0887263 3.29516888,13.9184085 2.84073275,13.9417844 L1.69135003,14.0000746 C1.0121728,14.0355241 0.384181858,13.6397227 0.123167186,13.0117023 C-0.137847487,12.3836818 0.0246039297,11.6593608 0.528831513,11.2029696 L1.38347966,10.4312412 C1.72125151,10.1261471 1.9140146,9.69227648 1.9140146,9.23711469 C1.9140146,8.7819529 1.72125151,8.34808228 1.38347966,8.04298815 L0.528831513,7.26715481 C0.0262952823,6.81129996 -0.135915479,6.08900388 0.123446104,5.46204465 C0.382807687,4.83508542 1.00788859,4.43847753 1.68560312,4.47087086 L2.83498583,4.52916098 C3.29030061,4.5530995 3.73436195,4.38255927 4.05660617,4.06000189 C4.37885039,3.73744451 4.5489592,3.29321773 4.52457843,2.83792642 L4.46957225,1.68772271 C4.43779124,1.01030063 4.83434926,0.385733759 5.46094679,0.126337836 C6.08754432,-0.133058087 6.80952302,0.0284621694 7.2658562,0.530130121 L8.0375846,1.38231531 Z" id="Path" stroke="#38467A"></path>
                        <circle id="Oval" stroke="#FFB400" cx="9.32407407" cy="9.32407407" r="3.69444444"></circle>
                    </g>
                </g>
            </g>
        </g>
    </g>
</svg>