<svg width="20" height="19" viewBox="0 0 20 19" xmlns="http://www.w3.org/2000/svg">
  <g transform="translate(1 1)" stroke-width="1.1" fill="none" fill-rule="evenodd" stroke-linecap="round" stroke-linejoin="round">
    <path d="M2.6 16.8a2 2 0 0 1-2-2.1v-8" stroke="#FB6D6D"/>
    <rect stroke="#38467A" x="2.1" y="3.4" width="15.4" height="12.2" rx="2.1"/>
    <path d="M11.3.4h-3a1 1 0 0 0-1 1v2h5v-2c0-.6-.4-1-1-1z" stroke="#38467A"/>
    <ellipse stroke="#38467A" cx="9.8" cy="9.6" rx="1" ry="1"/>
    <path d="M10.7 5.6l.3 1c0 .3.4.5.8.5l1-.3c.4 0 .8.1 1 .5.2.3.1.7-.2 1l-.7.8c-.2.3-.2.7 0 1l.7.7c.3.3.4.7.2 1a1 1 0 0 1-1 .5l-1-.3c-.4 0-.7.2-.8.5l-.3 1a1 1 0 0 1-1.8 0l-.3-1a.7.7 0 0 0-.8-.5l-1 .3a1 1 0 0 1-1-.5 1 1 0 0 1 .1-1l.7-.8c.3-.2.3-.6 0-1L6 8.4a1 1 0 0 1 0-1 1 1 0 0 1 1-.5l1 .3c.3 0 .6-.2.7-.5l.3-1a1 1 0 0 1 1.8 0z" stroke="#38467A"/>
  </g>
</svg>