<svg width="35" height="36" viewBox="0 0 35 36" xmlns="http://www.w3.org/2000/svg">
  <g stroke-width="1.4" fill="none" fill-rule="evenodd" stroke-linecap="round" stroke-linejoin="round">
    <path d="M3.5 22.1a2.4 2.4 0 0 1-1.3-4.3L28.4 1.4A2.4 2.4 0 0 1 32 4L26.9 31a2.4 2.4 0 0 1-4.2 1L15.3 22H3.5z" stroke="#38467A"/>
    <path d="M33.8 10.9l-4 21.7a3.3 3.3 0 0 1-2.6 2.6" stroke="#FB6D6D"/>
    <path d="M15.3 22.1h-3.5v7.4a2.4 2.4 0 0 0 3.6 2l4.6-3.2-4.7-6.2zM15.3 22.1L31 1.5" stroke="#38467A"/>
  </g>
</svg>